<?xml version="1.0" encoding="UTF-8"?>
<!DOCTYPE svg PUBLIC "-//W3C//DTD SVG 1.1//EN" "http://www.w3.org/Graphics/SVG/1.1/DTD/svg11.dtd">
<svg version="1.2" width="211.93mm" height="159.01mm" viewBox="0 0 21193 15901" preserveAspectRatio="xMidYMid" fill-rule="evenodd" stroke-width="28.222" stroke-linejoin="round" xmlns="http://www.w3.org/2000/svg" xmlns:ooo="http://xml.openoffice.org/svg/export" xmlns:xlink="http://www.w3.org/1999/xlink" xmlns:presentation="http://sun.com/xmlns/staroffice/presentation" xmlns:smil="http://www.w3.org/2001/SMIL20/" xmlns:anim="urn:oasis:names:tc:opendocument:xmlns:animation:1.0" xmlns:svg="urn:oasis:names:tc:opendocument:xmlns:svg-compatible:1.0" xml:space="preserve">
 <defs class="ClipPathGroup">
  <clipPath id="presentation_clip_path" clipPathUnits="userSpaceOnUse">
   <rect x="0" y="0" width="21193" height="15901"/>
  </clipPath>
  <clipPath id="presentation_clip_path_shrink" clipPathUnits="userSpaceOnUse">
   <rect x="21" y="15" width="21151" height="15870"/>
  </clipPath>
 </defs>
 <defs class="TextShapeIndex">
  <g ooo:slide="id1" ooo:id-list="id3"/>
 </defs>
 <defs class="EmbeddedBulletChars">
  <g id="bullet-char-template-57356" transform="scale(0.00048828125,-0.00048828125)">
   <path d="M 580,1141 L 1163,571 580,0 -4,571 580,1141 Z"/>
  </g>
  <g id="bullet-char-template-57354" transform="scale(0.00048828125,-0.00048828125)">
   <path d="M 8,1128 L 1137,1128 1137,0 8,0 8,1128 Z"/>
  </g>
  <g id="bullet-char-template-10146" transform="scale(0.00048828125,-0.00048828125)">
   <path d="M 174,0 L 602,739 174,1481 1456,739 174,0 Z M 1358,739 L 309,1346 659,739 1358,739 Z"/>
  </g>
  <g id="bullet-char-template-10132" transform="scale(0.00048828125,-0.00048828125)">
   <path d="M 2015,739 L 1276,0 717,0 1260,543 174,543 174,936 1260,936 717,1481 1274,1481 2015,739 Z"/>
  </g>
  <g id="bullet-char-template-10007" transform="scale(0.00048828125,-0.00048828125)">
   <path d="M 0,-2 C -7,14 -16,27 -25,37 L 356,567 C 262,823 215,952 215,954 215,979 228,992 255,992 264,992 276,990 289,987 310,991 331,999 354,1012 L 381,999 492,748 772,1049 836,1024 860,1049 C 881,1039 901,1025 922,1006 886,937 835,863 770,784 769,783 710,716 594,584 L 774,223 C 774,196 753,168 711,139 L 727,119 C 717,90 699,76 672,76 641,76 570,178 457,381 L 164,-76 C 142,-110 111,-127 72,-127 30,-127 9,-110 8,-76 1,-67 -2,-52 -2,-32 -2,-23 -1,-13 0,-2 Z"/>
  </g>
  <g id="bullet-char-template-10004" transform="scale(0.00048828125,-0.00048828125)">
   <path d="M 285,-33 C 182,-33 111,30 74,156 52,228 41,333 41,471 41,549 55,616 82,672 116,743 169,778 240,778 293,778 328,747 346,684 L 369,508 C 377,444 397,411 428,410 L 1163,1116 C 1174,1127 1196,1133 1229,1133 1271,1133 1292,1118 1292,1087 L 1292,965 C 1292,929 1282,901 1262,881 L 442,47 C 390,-6 338,-33 285,-33 Z"/>
  </g>
  <g id="bullet-char-template-9679" transform="scale(0.00048828125,-0.00048828125)">
   <path d="M 813,0 C 632,0 489,54 383,161 276,268 223,411 223,592 223,773 276,916 383,1023 489,1130 632,1184 813,1184 992,1184 1136,1130 1245,1023 1353,916 1407,772 1407,592 1407,412 1353,268 1245,161 1136,54 992,0 813,0 Z"/>
  </g>
  <g id="bullet-char-template-8226" transform="scale(0.00048828125,-0.00048828125)">
   <path d="M 346,457 C 273,457 209,483 155,535 101,586 74,649 74,723 74,796 101,859 155,911 209,963 273,989 346,989 419,989 480,963 531,910 582,859 608,796 608,723 608,648 583,586 532,535 482,483 420,457 346,457 Z"/>
  </g>
  <g id="bullet-char-template-8211" transform="scale(0.00048828125,-0.00048828125)">
   <path d="M -4,459 L 1135,459 1135,606 -4,606 -4,459 Z"/>
  </g>
  <g id="bullet-char-template-61548" transform="scale(0.00048828125,-0.00048828125)">
   <path d="M 173,740 C 173,903 231,1043 346,1159 462,1274 601,1332 765,1332 928,1332 1067,1274 1183,1159 1299,1043 1357,903 1357,740 1357,577 1299,437 1183,322 1067,206 928,148 765,148 601,148 462,206 346,322 231,437 173,577 173,740 Z"/>
  </g>
 </defs>
 <g>
  <g id="id2" class="Master_Slide">
   <g id="bg-id2" class="Background"/>
   <g id="bo-id2" class="BackgroundObjects"/>
  </g>
 </g>
 <g class="SlideGroup">
  <g>
   <g id="container-id1">
    <g id="id1" class="Slide" clip-path="url(#presentation_clip_path)">
     <g class="Page">
      <g class="Graphic">
       <g id="id3">
        <rect class="BoundingBox" stroke="none" fill="none" x="0" y="1754" width="21193" height="5250"/>
        <defs>
         <clipPath id="clip_path_1" clipPathUnits="userSpaceOnUse">
          <path d="M 0,1754 L 21192,1754 21192,7003 0,7003 0,1754 Z "/>
         </clipPath>
        </defs>
        <g clip-path="url(#clip_path_1)">
         <path fill="rgb(0,0,0)" stroke="none" d="M 13777,4626 L 13710,4626 13710,4371 C 13685,4394 13656,4411 13622,4422 L 13622,4361 C 13640,4355 13659,4344 13680,4328 13701,4312 13715,4293 13723,4271 L 13777,4271 13777,4626 13777,4626 Z M 13869,4553 L 13937,4543 C 13940,4556 13946,4566 13955,4573 13964,4580 13976,4583 13992,4583 14009,4583 14023,4580 14031,4573 14037,4569 14040,4563 14040,4555 14040,4550 14039,4546 14035,4543 14032,4539 14025,4536 14013,4533 13958,4521 13924,4510 13909,4500 13889,4487 13879,4467 13879,4443 13879,4421 13887,4402 13905,4387 13922,4372 13950,4364 13986,4364 14021,4364 14047,4370 14064,4382 14081,4393 14093,4410 14100,4432 L 14036,4444 C 14033,4434 14028,4426 14020,4421 14013,4416 14002,4413 13988,4413 13970,4413 13957,4416 13949,4421 13944,4424 13942,4429 13942,4434 13942,4439 13944,4443 13948,4447 13954,4451 13975,4457 14011,4466 14048,4474 14073,4484 14087,4496 14101,4508 14108,4524 14108,4546 14108,4570 14098,4590 14079,4607 14059,4623 14030,4632 13992,4632 13957,4632 13929,4625 13909,4611 13889,4596 13876,4577 13869,4553 L 13869,4553 Z M 14285,4370 L 14285,4424 14239,4424 14239,4527 C 14239,4548 14239,4560 14240,4564 14241,4567 14243,4570 14246,4572 14249,4574 14253,4576 14257,4576 14264,4576 14273,4573 14285,4569 L 14291,4622 C 14275,4628 14257,4632 14237,4632 14225,4632 14214,4630 14204,4626 14194,4621 14187,4616 14182,4610 14178,4603 14175,4594 14173,4583 14171,4575 14171,4559 14171,4535 L 14171,4424 14140,4424 14140,4370 14171,4370 14171,4319 14239,4280 14239,4370 14285,4370 14285,4370 Z M 14464,4370 L 14526,4370 14526,4405 C 14549,4378 14575,4364 14606,4364 14623,4364 14637,4368 14649,4375 14661,4381 14671,4391 14678,4405 14690,4391 14702,4381 14715,4375 14728,4368 14742,4364 14757,4364 14775,4364 14791,4368 14804,4376 14817,4383 14827,4395 14833,4409 14838,4420 14840,4438 14840,4462 L 14840,4626 14773,4626 14773,4480 C 14773,4454 14770,4438 14766,4431 14760,4421 14750,4416 14737,4416 14727,4416 14718,4419 14710,4425 14702,4431 14696,4439 14692,4450 14689,4461 14687,4479 14687,4503 L 14687,4626 14619,4626 14619,4486 C 14619,4461 14618,4445 14615,4438 14613,4430 14609,4425 14604,4421 14599,4418 14592,4416 14583,4416 14573,4416 14564,4419 14555,4425 14547,4430 14541,4438 14537,4449 14533,4460 14532,4477 14532,4502 L 14532,4626 14464,4626 14464,4370 14464,4370 Z M 14892,4495 C 14892,4472 14898,4450 14909,4429 14920,4408 14936,4392 14956,4381 14977,4370 14999,4364 15024,4364 15063,4364 15095,4377 15119,4402 15144,4427 15157,4459 15157,4497 15157,4536 15144,4568 15119,4594 15094,4619 15062,4632 15025,4632 15001,4632 14979,4627 14957,4616 14936,4605 14920,4590 14909,4569 14898,4549 14892,4524 14892,4495 L 14892,4495 Z M 14962,4498 C 14962,4524 14968,4543 14980,4557 14992,4570 15007,4576 15024,4576 15042,4576 15057,4570 15069,4557 15081,4543 15087,4523 15087,4497 15087,4472 15081,4453 15069,4440 15057,4426 15042,4419 15024,4419 15007,4419 14992,4426 14980,4440 14968,4453 14962,4473 14962,4498 L 14962,4498 Z M 15280,4626 L 15177,4370 15248,4370 15296,4501 15310,4544 C 15314,4533 15316,4526 15317,4522 15319,4515 15322,4508 15324,4501 L 15373,4370 15442,4370 15341,4626 15280,4626 15280,4626 Z M 15632,4545 L 15700,4556 C 15691,4581 15677,4599 15659,4612 15640,4625 15616,4632 15588,4632 15544,4632 15511,4617 15490,4588 15473,4565 15464,4535 15464,4500 15464,4458 15475,4424 15497,4400 15520,4376 15548,4364 15582,4364 15620,4364 15650,4377 15672,4402 15694,4427 15704,4466 15703,4518 L 15534,4518 C 15534,4538 15540,4554 15550,4565 15560,4576 15573,4581 15589,4581 15600,4581 15608,4578 15616,4573 15623,4567 15629,4558 15632,4545 L 15632,4545 Z M 15636,4476 C 15636,4456 15631,4442 15621,4431 15611,4421 15600,4416 15586,4416 15571,4416 15559,4421 15549,4432 15539,4443 15535,4458 15535,4476 L 15636,4476 15636,4476 Z M 15824,4626 L 15756,4626 15756,4370 15819,4370 15819,4407 C 15829,4389 15839,4378 15848,4373 15856,4367 15866,4364 15877,4364 15892,4364 15907,4369 15922,4377 L 15900,4436 C 15889,4429 15879,4425 15869,4425 15859,4425 15851,4428 15845,4433 15838,4438 15833,4448 15829,4462 15825,4475 15824,4504 15824,4547 L 15824,4626 15824,4626 Z "/>
         <path fill="rgb(0,0,0)" stroke="none" d="M 16077,4647 L 16119,4653 C 16121,4666 16126,4676 16134,4682 16145,4690 16159,4694 16178,4694 16198,4694 16214,4690 16224,4682 16235,4674 16243,4663 16247,4648 16249,4639 16250,4621 16250,4593 16231,4615 16207,4626 16179,4626 16144,4626 16116,4613 16097,4588 16078,4563 16068,4532 16068,4497 16068,4472 16072,4450 16081,4429 16090,4408 16103,4392 16120,4381 16137,4370 16156,4364 16179,4364 16209,4364 16234,4377 16254,4401 L 16254,4370 16294,4370 16294,4591 C 16294,4631 16290,4659 16281,4676 16273,4693 16261,4706 16243,4715 16226,4725 16204,4730 16178,4730 16148,4730 16123,4723 16104,4709 16085,4696 16076,4675 16077,4647 L 16077,4647 Z M 16113,4493 C 16113,4527 16119,4551 16133,4567 16146,4582 16163,4590 16183,4590 16203,4590 16219,4582 16233,4567 16246,4552 16253,4528 16253,4495 16253,4464 16246,4440 16232,4424 16218,4408 16202,4400 16182,4400 16163,4400 16146,4408 16133,4424 16119,4439 16113,4462 16113,4493 L 16113,4493 Z M 16535,4544 L 16579,4549 C 16572,4575 16559,4596 16540,4610 16521,4625 16497,4632 16467,4632 16430,4632 16400,4620 16378,4597 16356,4574 16345,4542 16345,4500 16345,4457 16356,4424 16378,4400 16400,4376 16429,4364 16465,4364 16499,4364 16527,4376 16548,4400 16570,4423 16581,4455 16581,4497 16581,4500 16581,4504 16581,4509 L 16390,4509 C 16391,4537 16399,4559 16414,4574 16428,4589 16446,4596 16467,4596 16483,4596 16497,4592 16508,4584 16519,4575 16528,4562 16535,4544 L 16535,4544 Z M 16392,4474 L 16535,4474 C 16533,4452 16528,4436 16519,4425 16505,4408 16487,4400 16465,4400 16445,4400 16428,4407 16414,4420 16401,4433 16394,4451 16392,4474 L 16392,4474 Z M 16729,4587 L 16735,4626 C 16723,4628 16712,4629 16702,4629 16687,4629 16674,4627 16665,4622 16657,4617 16651,4610 16647,4602 16644,4594 16642,4577 16642,4551 L 16642,4404 16610,4404 16610,4370 16642,4370 16642,4307 16685,4281 16685,4370 16729,4370 16729,4404 16685,4404 16685,4554 C 16685,4566 16686,4574 16687,4577 16689,4581 16691,4584 16694,4586 16698,4588 16703,4589 16710,4589 16714,4589 16721,4588 16729,4587 L 16729,4587 Z M 16754,4550 L 16797,4543 C 16799,4560 16806,4573 16817,4583 16828,4592 16843,4596 16863,4596 16883,4596 16898,4592 16907,4584 16917,4576 16922,4566 16922,4555 16922,4546 16917,4538 16909,4532 16903,4528 16888,4524 16865,4518 16833,4509 16810,4502 16798,4497 16786,4491 16777,4483 16770,4473 16764,4462 16761,4451 16761,4438 16761,4427 16763,4416 16769,4407 16774,4397 16781,4389 16790,4382 16797,4377 16806,4373 16817,4370 16829,4366 16842,4364 16855,4364 16875,4364 16893,4367 16908,4373 16923,4379 16934,4387 16941,4397 16949,4407 16954,4420 16957,4436 L 16914,4442 C 16912,4429 16907,4419 16897,4411 16888,4404 16875,4400 16858,4400 16838,4400 16824,4403 16815,4410 16807,4416 16803,4424 16803,4433 16803,4439 16805,4444 16808,4448 16812,4453 16817,4457 16825,4460 16829,4462 16842,4465 16863,4471 16894,4479 16915,4486 16927,4491 16940,4496 16949,4504 16956,4514 16963,4524 16966,4536 16966,4551 16966,4565 16962,4579 16953,4592 16945,4604 16933,4614 16917,4621 16901,4628 16883,4632 16863,4632 16830,4632 16805,4625 16787,4611 16770,4597 16758,4577 16754,4550 L 16754,4550 Z "/>
         <path fill="rgb(0,0,0)" stroke="none" d="M 17258,4271 C 17292,4271 17319,4284 17338,4308 17361,4337 17373,4385 17373,4452 17373,4519 17361,4567 17338,4596 17319,4620 17292,4632 17258,4632 17224,4632 17196,4619 17175,4593 17154,4566 17143,4519 17143,4451 17143,4385 17155,4337 17178,4307 17197,4283 17224,4271 17258,4271 L 17258,4271 Z M 17258,4328 C 17250,4328 17242,4330 17236,4335 17229,4341 17224,4350 17221,4364 17216,4381 17214,4410 17214,4452 17214,4493 17216,4522 17220,4537 17225,4553 17230,4563 17236,4568 17242,4573 17250,4576 17258,4576 17266,4576 17273,4573 17280,4568 17286,4563 17291,4554 17295,4540 17299,4523 17302,4493 17302,4452 17302,4410 17300,4382 17295,4366 17291,4351 17286,4341 17280,4335 17273,4330 17266,4328 17258,4328 L 17258,4328 Z M 17570,4626 L 17570,4273 17832,4273 17832,4333 17641,4333 17641,4411 17819,4411 17819,4470 17641,4470 17641,4566 17839,4566 17839,4626 17570,4626 17570,4626 Z M 18122,4446 L 18055,4458 C 18053,4445 18048,4435 18040,4428 18032,4421 18021,4418 18009,4418 17992,4418 17978,4424 17968,4435 17958,4447 17953,4466 17953,4493 17953,4524 17959,4545 17969,4558 17979,4570 17993,4576 18010,4576 18023,4576 18033,4573 18041,4566 18050,4558 18056,4546 18059,4528 L 18125,4539 C 18118,4570 18105,4593 18085,4609 18066,4624 18040,4632 18007,4632 17969,4632 17939,4620 17917,4597 17895,4573 17884,4540 17884,4498 17884,4456 17895,4423 17917,4400 17940,4376 17970,4364 18008,4364 18039,4364 18064,4371 18082,4385 18100,4398 18114,4418 18122,4446 L 18122,4446 Z M 18158,4495 C 18158,4472 18163,4450 18174,4429 18185,4408 18201,4392 18221,4381 18242,4370 18264,4364 18290,4364 18328,4364 18360,4377 18385,4402 18409,4427 18422,4459 18422,4497 18422,4536 18409,4568 18384,4594 18359,4619 18328,4632 18290,4632 18266,4632 18244,4627 18223,4616 18201,4605 18185,4590 18174,4569 18163,4549 18158,4524 18158,4495 L 18158,4495 Z M 18227,4498 C 18227,4524 18233,4543 18245,4557 18257,4570 18272,4576 18290,4576 18307,4576 18322,4570 18334,4557 18346,4543 18352,4523 18352,4497 18352,4472 18346,4453 18334,4440 18322,4426 18307,4419 18290,4419 18272,4419 18257,4426 18245,4440 18233,4453 18227,4473 18227,4498 L 18227,4498 Z M 18475,4335 L 18475,4273 18543,4273 18543,4335 18475,4335 18475,4335 Z M 18475,4626 L 18475,4370 18543,4370 18543,4626 18475,4626 18475,4626 Z M 18845,4626 L 18777,4626 18777,4495 C 18777,4468 18775,4450 18772,4442 18770,4434 18765,4428 18758,4423 18752,4418 18744,4416 18735,4416 18723,4416 18713,4419 18703,4426 18694,4432 18687,4441 18684,4452 18681,4462 18679,4482 18679,4510 L 18679,4626 18612,4626 18612,4370 18674,4370 18674,4408 C 18697,4379 18725,4364 18759,4364 18774,4364 18787,4367 18800,4373 18812,4378 18821,4385 18828,4393 18834,4402 18839,4411 18841,4422 18843,4432 18845,4447 18845,4467 L 18845,4626 18845,4626 Z M 18890,4553 L 18957,4543 C 18960,4556 18966,4566 18975,4573 18984,4580 18996,4583 19012,4583 19030,4583 19043,4580 19052,4573 19058,4569 19061,4563 19061,4555 19061,4550 19059,4546 19056,4543 19052,4539 19045,4536 19033,4533 18978,4521 18944,4510 18929,4500 18909,4487 18899,4467 18899,4443 18899,4421 18908,4402 18925,4387 18943,4372 18970,4364 19007,4364 19042,4364 19068,4370 19085,4382 19102,4393 19113,4410 19120,4432 L 19056,4444 C 19053,4434 19048,4426 19040,4421 19033,4416 19022,4413 19008,4413 18990,4413 18977,4416 18970,4421 18964,4424 18962,4429 18962,4434 18962,4439 18964,4443 18968,4447 18975,4451 18996,4457 19032,4466 19068,4474 19093,4484 19107,4496 19121,4508 19128,4524 19128,4546 19128,4570 19119,4590 19099,4607 19080,4623 19051,4632 19012,4632 18977,4632 18950,4625 18929,4611 18909,4596 18896,4577 18890,4553 L 18890,4553 Z "/>
         <path fill="rgb(0,0,0)" stroke="none" d="M 13833,5156 L 13833,5218 13596,5218 C 13598,5195 13606,5172 13618,5151 13631,5130 13657,5101 13695,5066 13725,5038 13744,5018 13751,5008 13760,4994 13765,4981 13765,4967 13765,4952 13761,4940 13753,4932 13745,4924 13734,4920 13719,4920 13705,4920 13694,4924 13685,4933 13677,4941 13672,4955 13671,4975 L 13603,4968 C 13608,4931 13620,4904 13641,4888 13662,4872 13689,4864 13721,4864 13756,4864 13783,4873 13803,4892 13823,4911 13833,4934 13833,4962 13833,4978 13830,4993 13824,5008 13819,5022 13810,5037 13797,5053 13789,5063 13774,5078 13753,5098 13731,5117 13718,5130 13712,5137 13707,5143 13702,5150 13699,5156 L 13833,5156 13833,5156 Z M 14126,5218 L 14058,5218 14058,5088 C 14058,5060 14057,5043 14054,5035 14051,5026 14046,5020 14040,5016 14033,5011 14026,5008 14016,5008 14005,5008 13994,5012 13985,5018 13975,5025 13969,5033 13965,5044 13962,5055 13960,5074 13960,5103 L 13960,5218 13893,5218 13893,4963 13956,4963 13956,5000 C 13978,4971 14006,4957 14040,4957 14055,4957 14069,4960 14081,4965 14093,4970 14103,4977 14109,4986 14115,4994 14120,5004 14122,5014 14125,5025 14126,5040 14126,5059 L 14126,5218 14126,5218 Z M 14430,5218 L 14366,5218 14366,5181 C 14356,5195 14343,5206 14329,5213 14315,5221 14301,5224 14287,5224 14257,5224 14232,5212 14211,5189 14190,5165 14179,5132 14179,5089 14179,5046 14190,5013 14210,4991 14230,4968 14256,4957 14287,4957 14316,4957 14341,4969 14362,4992 L 14362,4865 14430,4865 14430,5218 14430,5218 Z M 14249,5085 C 14249,5112 14252,5132 14260,5144 14271,5162 14286,5171 14306,5171 14321,5171 14334,5164 14345,5151 14356,5138 14362,5118 14362,5092 14362,5062 14356,5041 14346,5028 14335,5015 14322,5008 14305,5008 14289,5008 14276,5015 14265,5028 14254,5041 14249,5060 14249,5085 L 14249,5085 Z M 14628,4963 L 14690,4963 14690,4997 C 14713,4970 14739,4957 14770,4957 14787,4957 14801,4960 14813,4967 14825,4974 14835,4984 14843,4997 14854,4984 14866,4974 14879,4967 14892,4960 14906,4957 14921,4957 14939,4957 14955,4961 14968,4968 14981,4976 14991,4987 14998,5002 15002,5013 15005,5031 15005,5055 L 15005,5218 14937,5218 14937,5072 C 14937,5047 14934,5030 14930,5023 14924,5013 14914,5008 14901,5008 14891,5008 14883,5011 14874,5017 14866,5023 14860,5031 14856,5043 14853,5054 14851,5071 14851,5096 L 14851,5218 14783,5218 14783,5078 C 14783,5053 14782,5037 14779,5030 14777,5023 14773,5017 14768,5014 14763,5010 14756,5008 14747,5008 14737,5008 14728,5011 14719,5017 14711,5023 14705,5031 14701,5042 14698,5052 14696,5070 14696,5094 L 14696,5218 14628,5218 14628,4963 14628,4963 Z M 15057,5087 C 15057,5064 15062,5043 15073,5022 15084,5001 15100,4984 15120,4973 15141,4962 15163,4957 15188,4957 15227,4957 15259,4969 15284,4994 15308,5020 15321,5051 15321,5090 15321,5128 15308,5161 15283,5186 15258,5212 15227,5224 15189,5224 15165,5224 15143,5219 15121,5209 15100,5198 15084,5182 15073,5162 15062,5141 15057,5116 15057,5087 L 15057,5087 Z M 15126,5090 C 15126,5116 15132,5135 15144,5149 15156,5162 15171,5169 15188,5169 15206,5169 15221,5162 15233,5149 15245,5135 15251,5116 15251,5090 15251,5065 15245,5046 15233,5032 15221,5019 15206,5012 15188,5012 15171,5012 15156,5019 15144,5032 15132,5046 15126,5065 15126,5090 L 15126,5090 Z M 15444,5218 L 15341,4963 15412,4963 15460,5093 15474,5137 C 15478,5126 15480,5118 15481,5115 15483,5108 15486,5100 15488,5093 L 15537,4963 15607,4963 15505,5218 15444,5218 15444,5218 Z M 15796,5137 L 15864,5148 C 15855,5173 15841,5192 15823,5205 15804,5218 15781,5224 15752,5224 15708,5224 15675,5210 15654,5180 15637,5157 15628,5128 15628,5092 15628,5050 15639,5017 15662,4993 15684,4969 15712,4957 15746,4957 15784,4957 15814,4969 15836,4994 15858,5020 15868,5058 15867,5110 L 15698,5110 C 15698,5130 15704,5146 15714,5157 15724,5168 15738,5174 15753,5174 15764,5174 15773,5171 15780,5165 15787,5159 15793,5150 15796,5137 L 15796,5137 Z M 15800,5068 C 15800,5049 15795,5034 15785,5024 15775,5014 15764,5008 15750,5008 15735,5008 15723,5014 15713,5025 15704,5035 15699,5050 15699,5068 L 15800,5068 15800,5068 Z M 15988,5218 L 15920,5218 15920,4963 15983,4963 15983,4999 C 15993,4982 16003,4970 16012,4965 16020,4960 16030,4957 16041,4957 16056,4957 16071,4961 16086,4970 L 16065,5029 C 16053,5021 16043,5018 16033,5018 16023,5018 16015,5020 16009,5025 16002,5031 15997,5040 15993,5054 15989,5067 15988,5096 15988,5139 L 15988,5218 15988,5218 Z "/>
         <path fill="rgb(0,0,0)" stroke="none" d="M 16241,5239 L 16283,5246 C 16285,5259 16290,5268 16298,5274 16309,5282 16323,5286 16342,5286 16362,5286 16378,5282 16388,5274 16399,5266 16407,5255 16411,5241 16413,5232 16414,5213 16414,5185 16395,5207 16371,5218 16343,5218 16308,5218 16280,5206 16261,5180 16242,5155 16232,5125 16232,5089 16232,5065 16237,5042 16245,5021 16255,5001 16267,4985 16284,4974 16301,4962 16321,4957 16343,4957 16373,4957 16398,4969 16418,4993 L 16418,4963 16458,4963 16458,5184 C 16458,5224 16454,5252 16445,5268 16437,5285 16425,5298 16407,5308 16390,5317 16368,5322 16342,5322 16312,5322 16287,5315 16268,5301 16249,5288 16240,5267 16241,5239 L 16241,5239 Z M 16277,5086 C 16277,5119 16283,5144 16297,5159 16310,5175 16327,5182 16347,5182 16367,5182 16384,5175 16397,5160 16411,5144 16417,5120 16417,5087 16417,5056 16410,5032 16396,5017 16383,5001 16366,4993 16346,4993 16327,4993 16311,5001 16297,5016 16284,5032 16277,5055 16277,5086 L 16277,5086 Z M 16699,5136 L 16744,5142 C 16736,5168 16723,5188 16704,5203 16685,5217 16661,5224 16631,5224 16594,5224 16564,5213 16542,5190 16520,5167 16509,5134 16509,5093 16509,5050 16520,5016 16542,4992 16565,4969 16593,4957 16629,4957 16663,4957 16691,4969 16712,4992 16734,5015 16745,5048 16745,5090 16745,5093 16745,5097 16745,5101 L 16554,5101 C 16555,5130 16563,5151 16578,5166 16592,5181 16610,5189 16631,5189 16647,5189 16661,5185 16672,5176 16683,5168 16692,5154 16699,5136 L 16699,5136 Z M 16556,5066 L 16699,5066 C 16697,5044 16692,5028 16683,5018 16669,5001 16651,4992 16629,4992 16609,4992 16592,4999 16579,5013 16565,5026 16558,5044 16556,5066 L 16556,5066 Z M 16893,5180 L 16899,5218 C 16887,5220 16876,5222 16866,5222 16851,5222 16838,5219 16830,5214 16821,5209 16815,5203 16811,5195 16808,5187 16806,5170 16806,5144 L 16806,4996 16774,4996 16774,4963 16806,4963 16806,4899 16849,4873 16849,4963 16893,4963 16893,4996 16849,4996 16849,5146 C 16849,5158 16850,5166 16851,5170 16853,5173 16855,5176 16859,5178 16862,5180 16867,5181 16874,5181 16878,5181 16885,5181 16893,5180 L 16893,5180 Z M 16918,5142 L 16961,5135 C 16963,5152 16970,5166 16981,5175 16992,5184 17007,5189 17027,5189 17047,5189 17062,5185 17071,5177 17081,5168 17086,5159 17086,5148 17086,5138 17081,5130 17073,5125 17067,5121 17052,5116 17029,5110 16997,5102 16975,5095 16962,5089 16950,5083 16941,5075 16934,5065 16928,5055 16925,5043 16925,5030 16925,5019 16928,5009 16933,4999 16938,4989 16945,4981 16954,4975 16961,4970 16970,4966 16982,4962 16993,4959 17006,4957 17019,4957 17039,4957 17057,4960 17072,4966 17087,4971 17098,4979 17106,4989 17113,4999 17118,5012 17121,5029 L 17078,5035 C 17076,5021 17071,5011 17061,5004 17052,4996 17039,4992 17023,4992 17002,4992 16988,4996 16980,5002 16971,5009 16967,5017 16967,5025 16967,5031 16969,5036 16972,5041 16976,5045 16981,5049 16989,5052 16993,5054 17006,5058 17027,5063 17058,5071 17079,5078 17092,5083 17104,5089 17113,5096 17120,5106 17127,5116 17130,5128 17130,5143 17130,5158 17126,5171 17118,5184 17109,5197 17097,5207 17081,5214 17065,5221 17047,5224 17027,5224 16994,5224 16969,5217 16951,5204 16934,5190 16923,5169 16918,5142 L 16918,5142 Z "/>
         <path fill="rgb(0,0,0)" stroke="none" d="M 17481,5218 L 17413,5218 17413,4963 C 17388,4987 17359,5004 17325,5015 L 17325,4953 C 17343,4947 17363,4936 17383,4920 17404,4904 17418,4885 17426,4864 L 17481,4864 17481,5218 17481,5218 Z M 17697,4864 C 17731,4864 17758,4876 17777,4900 17800,4929 17811,4977 17811,5044 17811,5111 17800,5159 17776,5188 17757,5212 17731,5225 17697,5225 17662,5225 17634,5211 17613,5185 17592,5158 17582,5111 17582,5044 17582,4977 17593,4929 17616,4900 17635,4876 17662,4864 17697,4864 L 17697,4864 Z M 17697,4920 C 17688,4920 17681,4923 17674,4928 17668,4933 17663,4943 17659,4956 17655,4973 17653,5003 17653,5044 17653,5086 17655,5114 17659,5130 17663,5145 17668,5155 17675,5161 17681,5166 17688,5168 17697,5168 17705,5168 17712,5166 17718,5161 17725,5155 17730,5146 17733,5132 17738,5115 17740,5086 17740,5044 17740,5003 17738,4974 17734,4959 17730,4943 17724,4933 17718,4928 17712,4923 17705,4920 17697,4920 L 17697,4920 Z M 17971,4864 C 18005,4864 18032,4876 18051,4900 18074,4929 18086,4977 18086,5044 18086,5111 18074,5159 18051,5188 18032,5212 18005,5225 17971,5225 17937,5225 17909,5211 17888,5185 17867,5158 17856,5111 17856,5044 17856,4977 17868,4929 17891,4900 17910,4876 17937,4864 17971,4864 L 17971,4864 Z M 17971,4920 C 17963,4920 17955,4923 17949,4928 17943,4933 17938,4943 17934,4956 17930,4973 17927,5003 17927,5044 17927,5086 17929,5114 17934,5130 17938,5145 17943,5155 17949,5161 17956,5166 17963,5168 17971,5168 17979,5168 17986,5166 17993,5161 17999,5155 18004,5146 18008,5132 18013,5115 18015,5086 18015,5044 18015,5003 18013,4974 18008,4959 18004,4943 17999,4933 17993,4928 17986,4923 17979,4920 17971,4920 L 17971,4920 Z M 18283,5218 L 18283,4865 18545,4865 18545,4925 18354,4925 18354,5003 18532,5003 18532,5063 18354,5063 18354,5159 18552,5159 18552,5218 18283,5218 18283,5218 Z M 18835,5038 L 18768,5050 C 18766,5037 18761,5027 18753,5020 18745,5014 18735,5010 18722,5010 18705,5010 18692,5016 18681,5028 18672,5039 18667,5058 18667,5086 18667,5116 18672,5138 18682,5150 18692,5163 18706,5169 18723,5169 18736,5169 18746,5165 18755,5158 18763,5151 18769,5138 18772,5120 L 18839,5132 C 18832,5162 18818,5185 18798,5201 18779,5216 18753,5224 18720,5224 18682,5224 18652,5212 18630,5189 18608,5165 18597,5133 18597,5091 18597,5049 18608,5016 18631,4992 18653,4969 18683,4957 18721,4957 18752,4957 18777,4964 18795,4977 18814,4990 18827,5011 18835,5038 L 18835,5038 Z M 18871,5087 C 18871,5064 18876,5043 18887,5022 18898,5001 18914,4984 18934,4973 18955,4962 18978,4957 19003,4957 19041,4957 19073,4969 19098,4994 19123,5020 19135,5051 19135,5090 19135,5128 19122,5161 19097,5186 19072,5212 19041,5224 19003,5224 18980,5224 18957,5219 18936,5209 18914,5198 18898,5182 18887,5162 18876,5141 18871,5116 18871,5087 L 18871,5087 Z M 18940,5090 C 18940,5116 18946,5135 18958,5149 18970,5162 18985,5169 19003,5169 19020,5169 19035,5162 19047,5149 19059,5135 19065,5116 19065,5090 19065,5065 19059,5046 19047,5032 19035,5019 19020,5012 19003,5012 18985,5012 18970,5019 18958,5032 18946,5046 18940,5065 18940,5090 L 18940,5090 Z M 19188,4928 L 19188,4865 19256,4865 19256,4928 19188,4928 19188,4928 Z M 19188,5218 L 19188,4963 19256,4963 19256,5218 19188,5218 19188,5218 Z M 19558,5218 L 19490,5218 19490,5088 C 19490,5060 19489,5043 19486,5035 19483,5026 19478,5020 19471,5016 19465,5011 19457,5008 19448,5008 19436,5008 19426,5012 19416,5018 19407,5025 19401,5033 19397,5044 19394,5055 19392,5074 19392,5103 L 19392,5218 19325,5218 19325,4963 19388,4963 19388,5000 C 19410,4971 19438,4957 19472,4957 19487,4957 19500,4960 19513,4965 19525,4970 19535,4977 19541,4986 19547,4994 19552,5004 19554,5014 19557,5025 19558,5040 19558,5059 L 19558,5218 19558,5218 Z M 19603,5145 L 19670,5135 C 19673,5148 19679,5158 19688,5165 19697,5172 19709,5175 19725,5175 19743,5175 19756,5172 19765,5166 19771,5161 19774,5155 19774,5148 19774,5143 19772,5138 19769,5135 19766,5132 19758,5129 19746,5126 19692,5114 19657,5103 19642,5093 19622,5079 19612,5060 19612,5035 19612,5013 19621,4994 19638,4980 19656,4964 19683,4957 19720,4957 19755,4957 19781,4963 19798,4974 19815,4985 19827,5002 19833,5025 L 19769,5036 C 19766,5026 19761,5019 19754,5013 19746,5008 19735,5006 19721,5006 19703,5006 19691,5008 19683,5013 19678,5017 19675,5021 19675,5027 19675,5031 19677,5035 19682,5039 19688,5043 19709,5050 19745,5058 19781,5066 19806,5076 19821,5088 19835,5100 19842,5117 19842,5138 19842,5162 19832,5182 19812,5199 19793,5216 19764,5224 19725,5224 19690,5224 19663,5217 19642,5203 19622,5189 19609,5170 19603,5145 L 19603,5145 Z "/>
         <path fill="rgb(0,0,0)" stroke="none" d="M 7518,6341 L 7450,6341 7450,6086 C 7426,6110 7396,6127 7363,6138 L 7363,6076 C 7381,6070 7400,6059 7421,6043 7441,6027 7455,6008 7463,5987 L 7518,5987 7518,6341 7518,6341 Z M 7610,6268 L 7678,6258 C 7681,6271 7687,6281 7695,6288 7704,6295 7717,6298 7733,6298 7750,6298 7763,6295 7772,6289 7778,6284 7781,6278 7781,6271 7781,6266 7779,6261 7776,6258 7773,6255 7765,6252 7753,6249 7699,6237 7664,6226 7650,6216 7629,6202 7619,6183 7619,6158 7619,6136 7628,6117 7645,6103 7663,6087 7690,6080 7727,6080 7762,6080 7788,6086 7805,6097 7822,6108 7834,6125 7840,6148 L 7776,6159 C 7774,6149 7768,6142 7761,6136 7753,6131 7742,6129 7728,6129 7710,6129 7698,6131 7690,6136 7685,6140 7682,6144 7682,6150 7682,6154 7684,6158 7689,6162 7695,6166 7716,6173 7752,6181 7788,6189 7813,6199 7828,6211 7842,6223 7849,6240 7849,6261 7849,6285 7839,6305 7819,6322 7800,6339 7771,6347 7733,6347 7698,6347 7670,6340 7650,6326 7629,6312 7616,6293 7610,6268 L 7610,6268 Z M 8026,6086 L 8026,6139 7979,6139 7979,6243 C 7979,6264 7980,6276 7981,6279 7982,6283 7983,6285 7987,6288 7990,6290 7994,6291 7998,6291 8004,6291 8014,6289 8025,6284 L 8031,6337 C 8015,6344 7998,6347 7978,6347 7965,6347 7954,6345 7944,6341 7935,6337 7928,6332 7923,6325 7918,6319 7915,6310 7914,6299 7912,6291 7911,6275 7911,6251 L 7911,6139 7880,6139 7880,6086 7911,6086 7911,6035 7979,5995 7979,6086 8026,6086 8026,6086 Z M 8205,6086 L 8267,6086 8267,6120 C 8289,6093 8316,6080 8347,6080 8363,6080 8377,6083 8389,6090 8401,6097 8411,6107 8419,6120 8430,6107 8442,6097 8455,6090 8469,6083 8483,6080 8497,6080 8516,6080 8532,6084 8545,6091 8558,6099 8568,6110 8574,6125 8579,6136 8581,6154 8581,6178 L 8581,6341 8513,6341 8513,6195 C 8513,6170 8511,6153 8506,6146 8500,6136 8491,6131 8477,6131 8468,6131 8459,6134 8450,6140 8442,6146 8436,6154 8433,6166 8429,6177 8427,6194 8427,6219 L 8427,6341 8360,6341 8360,6201 C 8360,6176 8358,6160 8356,6153 8353,6146 8350,6140 8345,6137 8340,6133 8333,6131 8324,6131 8314,6131 8304,6134 8296,6140 8288,6146 8282,6154 8278,6165 8274,6175 8272,6192 8272,6217 L 8272,6341 8205,6341 8205,6086 8205,6086 Z M 8633,6210 C 8633,6187 8639,6166 8650,6145 8661,6123 8676,6107 8697,6096 8717,6085 8740,6080 8765,6080 8804,6080 8835,6092 8860,6117 8885,6142 8897,6174 8897,6213 8897,6251 8885,6284 8860,6309 8835,6335 8803,6347 8765,6347 8742,6347 8719,6342 8698,6331 8677,6321 8661,6305 8650,6285 8639,6264 8633,6239 8633,6210 L 8633,6210 Z M 8703,6213 C 8703,6239 8708,6258 8720,6272 8732,6285 8747,6292 8765,6292 8783,6292 8797,6285 8809,6272 8821,6258 8827,6239 8827,6213 8827,6188 8821,6169 8809,6155 8797,6142 8783,6135 8765,6135 8747,6135 8732,6142 8720,6155 8708,6169 8703,6188 8703,6213 L 8703,6213 Z M 9021,6341 L 8917,6086 8988,6086 9037,6216 9051,6260 C 9054,6249 9057,6241 9058,6238 9060,6231 9062,6223 9065,6216 L 9114,6086 9183,6086 9081,6341 9021,6341 9021,6341 Z M 9373,6260 L 9440,6271 C 9432,6296 9418,6315 9399,6328 9380,6341 9357,6347 9329,6347 9285,6347 9252,6333 9230,6303 9213,6280 9205,6251 9205,6215 9205,6173 9216,6140 9238,6116 9260,6092 9288,6080 9322,6080 9360,6080 9390,6092 9412,6117 9435,6142 9445,6181 9444,6233 L 9274,6233 C 9275,6253 9280,6269 9291,6280 9301,6291 9314,6297 9330,6297 9340,6297 9349,6294 9356,6288 9364,6282 9369,6273 9373,6260 L 9373,6260 Z M 9377,6191 C 9376,6172 9371,6157 9362,6147 9352,6137 9340,6131 9326,6131 9312,6131 9299,6137 9290,6148 9280,6158 9275,6173 9276,6191 L 9377,6191 9377,6191 Z M 9564,6341 L 9496,6341 9496,6086 9559,6086 9559,6122 C 9570,6105 9580,6093 9588,6088 9597,6083 9606,6080 9618,6080 9633,6080 9648,6084 9662,6093 L 9641,6152 C 9630,6144 9619,6141 9609,6141 9600,6141 9592,6143 9585,6148 9579,6154 9573,6163 9570,6177 9566,6190 9564,6219 9564,6262 L 9564,6341 9564,6341 Z "/>
         <path fill="rgb(0,0,0)" stroke="none" d="M 9817,6362 L 9860,6369 C 9861,6382 9866,6391 9874,6397 9885,6405 9900,6409 9919,6409 9939,6409 9954,6405 9965,6397 9976,6389 9983,6378 9987,6364 9989,6355 9990,6336 9990,6308 9971,6330 9948,6341 9919,6341 9884,6341 9857,6329 9838,6303 9818,6278 9809,6248 9809,6212 9809,6188 9813,6165 9822,6144 9831,6124 9844,6108 9860,6097 9877,6085 9897,6080 9920,6080 9950,6080 9975,6092 9994,6116 L 9994,6086 10034,6086 10034,6307 C 10034,6347 10030,6375 10022,6391 10014,6408 10001,6421 9984,6431 9966,6440 9945,6445 9919,6445 9888,6445 9864,6438 9845,6424 9826,6411 9817,6390 9817,6362 L 9817,6362 Z M 9853,6209 C 9853,6242 9860,6267 9873,6282 9887,6298 9903,6305 9924,6305 9943,6305 9960,6298 9974,6283 9987,6267 9994,6243 9994,6210 9994,6179 9987,6155 9973,6140 9959,6124 9942,6116 9923,6116 9903,6116 9887,6124 9874,6139 9860,6155 9853,6178 9853,6209 L 9853,6209 Z M 10275,6259 L 10320,6265 C 10313,6291 10300,6311 10281,6326 10262,6340 10237,6347 10208,6347 10170,6347 10140,6336 10118,6313 10097,6290 10086,6257 10086,6216 10086,6173 10097,6139 10119,6115 10141,6092 10170,6080 10205,6080 10239,6080 10267,6092 10289,6115 10310,6138 10321,6171 10321,6213 10321,6216 10321,6219 10321,6224 L 10130,6224 C 10132,6253 10140,6274 10154,6289 10169,6304 10186,6312 10208,6312 10224,6312 10237,6308 10249,6299 10260,6291 10269,6277 10275,6259 L 10275,6259 Z M 10133,6189 L 10276,6189 C 10274,6167 10268,6151 10259,6141 10245,6124 10228,6115 10206,6115 10186,6115 10169,6122 10155,6136 10142,6149 10134,6167 10133,6189 L 10133,6189 Z M 10469,6303 L 10475,6341 C 10463,6343 10452,6345 10443,6345 10427,6345 10415,6342 10406,6337 10398,6332 10391,6326 10388,6318 10384,6310 10382,6293 10382,6267 L 10382,6119 10351,6119 10351,6086 10382,6086 10382,6022 10425,5996 10425,6086 10469,6086 10469,6119 10425,6119 10425,6269 C 10425,6281 10426,6289 10428,6293 10429,6296 10432,6299 10435,6301 10439,6303 10444,6304 10450,6304 10455,6304 10461,6304 10469,6303 L 10469,6303 Z M 10494,6265 L 10537,6258 C 10540,6275 10546,6289 10557,6298 10568,6307 10584,6312 10604,6312 10623,6312 10638,6308 10648,6300 10657,6291 10662,6282 10662,6271 10662,6261 10658,6253 10649,6248 10644,6244 10629,6239 10605,6233 10573,6225 10551,6218 10539,6212 10527,6206 10517,6198 10511,6188 10505,6178 10501,6166 10501,6153 10501,6142 10504,6132 10509,6122 10515,6112 10522,6104 10531,6098 10537,6093 10546,6088 10558,6085 10570,6082 10582,6080 10596,6080 10616,6080 10633,6083 10649,6088 10664,6094 10675,6102 10682,6112 10690,6122 10695,6135 10697,6152 L 10655,6158 C 10653,6144 10647,6134 10638,6127 10629,6119 10616,6115 10599,6115 10579,6115 10565,6119 10556,6125 10548,6132 10544,6140 10544,6148 10544,6154 10545,6159 10549,6164 10552,6168 10558,6172 10566,6175 10570,6177 10582,6181 10604,6186 10634,6194 10656,6201 10668,6206 10680,6212 10690,6219 10697,6229 10703,6239 10707,6251 10707,6266 10707,6281 10703,6294 10694,6307 10686,6320 10674,6330 10658,6337 10642,6344 10624,6347 10604,6347 10570,6347 10545,6340 10527,6327 10510,6313 10499,6292 10494,6265 L 10494,6265 Z "/>
         <path fill="rgb(0,0,0)" stroke="none" d="M 10882,6248 L 10947,6240 C 10949,6257 10955,6269 10964,6278 10973,6287 10984,6291 10997,6291 11011,6291 11023,6286 11033,6276 11042,6265 11047,6250 11047,6232 11047,6216 11042,6202 11033,6192 11024,6182 11013,6177 11000,6177 10991,6177 10981,6179 10968,6182 L 10976,6127 C 10994,6127 11008,6124 11018,6115 11028,6107 11033,6096 11033,6081 11033,6070 11029,6060 11022,6053 11015,6046 11006,6042 10994,6042 10982,6042 10972,6046 10964,6055 10956,6063 10951,6074 10949,6090 L 10887,6079 C 10891,6058 10897,6041 10906,6028 10915,6015 10927,6005 10943,5998 10959,5991 10976,5987 10996,5987 11029,5987 11055,5997 11076,6019 11092,6036 11100,6056 11100,6077 11100,6108 11083,6133 11049,6152 11070,6156 11086,6166 11098,6181 11110,6196 11116,6214 11116,6235 11116,6266 11105,6293 11082,6315 11060,6337 11031,6348 10998,6348 10966,6348 10939,6338 10918,6320 10897,6301 10885,6277 10882,6248 L 10882,6248 Z M 11273,5987 C 11307,5987 11334,5999 11353,6023 11376,6052 11388,6100 11388,6167 11388,6234 11376,6282 11353,6311 11334,6335 11307,6348 11273,6348 11239,6348 11211,6334 11190,6308 11169,6281 11158,6234 11158,6167 11158,6100 11170,6052 11193,6023 11212,5999 11239,5987 11273,5987 L 11273,5987 Z M 11273,6043 C 11265,6043 11257,6046 11251,6051 11244,6056 11240,6065 11236,6079 11232,6096 11229,6126 11229,6167 11229,6209 11231,6237 11236,6253 11240,6268 11245,6278 11251,6284 11258,6289 11265,6291 11273,6291 11281,6291 11288,6289 11295,6284 11301,6278 11306,6269 11310,6255 11315,6238 11317,6209 11317,6167 11317,6126 11315,6097 11310,6082 11306,6066 11301,6056 11295,6051 11288,6046 11281,6043 11273,6043 L 11273,6043 Z M 11585,6341 L 11585,5988 11847,5988 11847,6048 11656,6048 11656,6126 11834,6126 11834,6186 11656,6186 11656,6282 11854,6282 11854,6341 11585,6341 11585,6341 Z M 12137,6161 L 12070,6173 C 12068,6160 12063,6150 12055,6143 12047,6137 12037,6133 12024,6133 12007,6133 11994,6139 11983,6150 11973,6162 11969,6181 11969,6209 11969,6239 11974,6261 11984,6273 11994,6286 12008,6292 12025,6292 12038,6292 12048,6288 12057,6281 12065,6274 12071,6261 12074,6243 L 12140,6255 C 12134,6285 12120,6308 12100,6324 12081,6339 12055,6347 12022,6347 11984,6347 11954,6335 11932,6312 11910,6288 11899,6256 11899,6214 11899,6172 11910,6139 11933,6115 11955,6092 11985,6080 12023,6080 12054,6080 12079,6087 12097,6100 12116,6113 12129,6134 12137,6161 L 12137,6161 Z M 12173,6210 C 12173,6187 12178,6166 12189,6145 12200,6123 12216,6107 12236,6096 12257,6085 12280,6080 12305,6080 12343,6080 12375,6092 12400,6117 12425,6142 12437,6174 12437,6213 12437,6251 12424,6284 12399,6309 12374,6335 12343,6347 12305,6347 12282,6347 12259,6342 12238,6331 12216,6321 12200,6305 12189,6285 12178,6264 12173,6239 12173,6210 L 12173,6210 Z M 12242,6213 C 12242,6239 12248,6258 12260,6272 12272,6285 12287,6292 12305,6292 12322,6292 12337,6285 12349,6272 12361,6258 12367,6239 12367,6213 12367,6188 12361,6169 12349,6155 12337,6142 12322,6135 12305,6135 12287,6135 12272,6142 12260,6155 12248,6169 12242,6188 12242,6213 L 12242,6213 Z M 12490,6051 L 12490,5988 12558,5988 12558,6051 12490,6051 12490,6051 Z M 12490,6341 L 12490,6086 12558,6086 12558,6341 12490,6341 12490,6341 Z M 12860,6341 L 12792,6341 12792,6211 C 12792,6183 12791,6166 12787,6158 12785,6149 12780,6143 12773,6139 12767,6134 12759,6131 12750,6131 12738,6131 12728,6135 12718,6141 12709,6148 12703,6156 12699,6167 12696,6177 12694,6197 12694,6226 L 12694,6341 12627,6341 12627,6086 12690,6086 12690,6123 C 12712,6094 12740,6080 12774,6080 12789,6080 12802,6083 12815,6088 12827,6093 12837,6100 12843,6109 12849,6117 12854,6127 12856,6137 12859,6148 12860,6163 12860,6182 L 12860,6341 12860,6341 Z M 12905,6268 L 12972,6258 C 12975,6271 12981,6281 12990,6288 12999,6295 13011,6298 13027,6298 13045,6298 13058,6295 13067,6289 13073,6284 13076,6278 13076,6271 13076,6266 13074,6261 13071,6258 13068,6255 13060,6252 13048,6249 12994,6237 12959,6226 12944,6216 12924,6202 12914,6183 12914,6158 12914,6136 12923,6117 12940,6103 12958,6087 12985,6080 13022,6080 13057,6080 13083,6086 13100,6097 13117,6108 13129,6125 13135,6148 L 13071,6159 C 13068,6149 13063,6142 13056,6136 13048,6131 13037,6129 13023,6129 13005,6129 12993,6131 12985,6136 12980,6140 12977,6144 12977,6150 12977,6154 12979,6158 12984,6162 12990,6166 13011,6173 13047,6181 13083,6189 13108,6199 13122,6211 13137,6223 13144,6240 13144,6261 13144,6285 13134,6305 13114,6322 13095,6339 13066,6347 13027,6347 12992,6347 12965,6340 12944,6326 12924,6312 12911,6293 12905,6268 L 12905,6268 Z "/>
         <path fill="rgb(0,0,0)" stroke="none" d="M 7573,6871 L 7573,6934 7336,6934 C 7339,6910 7346,6888 7359,6866 7372,6845 7397,6817 7435,6782 7466,6753 7485,6734 7492,6724 7501,6710 7506,6696 7506,6682 7506,6667 7502,6656 7493,6648 7485,6640 7474,6635 7460,6635 7446,6635 7434,6640 7426,6648 7418,6657 7413,6671 7411,6690 L 7344,6684 C 7348,6647 7361,6620 7382,6604 7403,6587 7430,6579 7461,6579 7496,6579 7523,6589 7543,6607 7563,6626 7573,6650 7573,6678 7573,6693 7571,6708 7565,6723 7559,6737 7550,6752 7538,6768 7530,6779 7515,6794 7493,6813 7472,6833 7459,6846 7453,6852 7447,6859 7443,6865 7439,6871 L 7573,6871 Z M 7867,6934 L 7799,6934 7799,6803 C 7799,6776 7797,6758 7794,6750 7792,6742 7787,6735 7780,6731 7774,6726 7766,6724 7757,6724 7745,6724 7735,6727 7725,6734 7716,6740 7709,6749 7706,6759 7702,6770 7701,6789 7701,6818 L 7701,6934 7633,6934 7633,6678 7696,6678 7696,6716 C 7719,6687 7747,6672 7781,6672 7796,6672 7809,6675 7822,6681 7834,6686 7843,6693 7850,6701 7856,6709 7860,6719 7863,6730 7865,6740 7867,6755 7867,6775 L 7867,6934 7867,6934 Z M 8107,6934 L 8107,6896 C 8096,6911 8084,6922 8070,6929 8056,6936 8041,6940 8027,6940 7998,6940 7972,6928 7951,6904 7931,6880 7920,6847 7920,6805 7920,6762 7930,6729 7951,6706 7971,6684 7997,6672 8028,6672 8057,6672 8081,6684 8102,6708 L 8102,6581 8170,6581 8170,6934 8107,6934 Z M 7989,6800 C 7989,6828 7993,6847 8001,6859 8011,6877 8027,6886 8046,6886 8062,6886 8075,6880 8086,6866 8097,6853 8102,6833 8102,6807 8102,6777 8097,6756 8086,6743 8076,6730 8062,6724 8046,6724 8030,6724 8016,6730 8005,6743 7994,6756 7989,6775 7989,6800 Z M 8431,6678 L 8431,6713 C 8453,6686 8480,6672 8511,6672 8527,6672 8542,6676 8553,6683 8566,6689 8575,6699 8583,6713 8594,6699 8607,6689 8620,6683 8633,6676 8647,6672 8661,6672 8680,6672 8696,6676 8709,6684 8722,6691 8732,6702 8738,6717 8743,6728 8745,6746 8745,6770 L 8745,6934 8677,6934 8677,6788 C 8677,6762 8675,6746 8670,6738 8664,6729 8655,6724 8641,6724 8632,6724 8623,6727 8615,6733 8606,6738 8600,6747 8597,6758 8593,6769 8591,6787 8591,6811 L 8591,6934 8524,6934 8524,6794 C 8524,6769 8522,6753 8520,6745 8517,6738 8514,6733 8509,6729 8504,6726 8497,6724 8488,6724 8478,6724 8468,6727 8460,6733 8452,6738 8446,6746 8442,6757 8438,6767 8436,6785 8436,6809 L 8436,6934 8369,6934 8369,6678 8431,6678 Z M 8797,6802 C 8797,6780 8803,6758 8814,6737 8825,6716 8840,6700 8861,6689 8881,6678 8904,6672 8929,6672 8968,6672 8999,6685 9024,6710 9049,6735 9061,6767 9061,6805 9061,6844 9049,6876 9024,6902 8999,6927 8967,6940 8929,6940 8906,6940 8884,6934 8862,6924 8841,6913 8825,6898 8814,6877 8803,6857 8797,6832 8797,6802 Z M 8867,6806 C 8867,6831 8873,6851 8884,6864 8897,6878 8911,6884 8929,6884 8947,6884 8961,6878 8973,6864 8985,6851 8991,6831 8991,6805 8991,6780 8985,6761 8973,6747 8961,6734 8947,6727 8929,6727 8911,6727 8897,6734 8884,6747 8873,6761 8867,6780 8867,6806 Z M 9185,6934 L 9081,6678 9152,6678 9201,6809 9215,6852 C 9218,6841 9221,6834 9222,6830 9224,6823 9226,6816 9229,6809 L 9278,6678 9347,6678 9245,6934 9185,6934 Z M 9537,6852 L 9604,6864 C 9596,6888 9582,6907 9563,6920 9545,6933 9521,6940 9493,6940 9449,6940 9416,6925 9394,6896 9377,6873 9369,6843 9369,6808 9369,6765 9380,6732 9402,6708 9424,6684 9453,6672 9486,6672 9524,6672 9555,6685 9577,6710 9599,6735 9609,6773 9608,6826 L 9439,6826 C 9439,6846 9444,6861 9455,6873 9465,6884 9478,6889 9494,6889 9504,6889 9513,6886 9520,6881 9528,6875 9533,6865 9537,6852 Z M 9541,6784 C 9540,6764 9535,6749 9526,6739 9516,6729 9504,6724 9491,6724 9476,6724 9463,6729 9454,6740 9444,6751 9439,6765 9440,6784 L 9541,6784 Z M 9728,6934 L 9661,6934 9661,6678 9723,6678 9723,6714 C 9734,6697 9744,6686 9752,6681 9761,6675 9771,6672 9782,6672 9797,6672 9812,6677 9826,6685 L 9805,6744 C 9794,6737 9783,6733 9773,6733 9764,6733 9756,6736 9749,6741 9743,6746 9738,6756 9734,6769 9730,6783 9728,6811 9728,6855 L 9728,6934 9728,6934 Z "/>
         <path fill="rgb(0,0,0)" stroke="none" d="M 9981,6955 L 10024,6961 C 10026,6974 10031,6984 10039,6990 10049,6998 10064,7002 10083,7002 10103,7002 10118,6998 10129,6990 10140,6982 10148,6970 10151,6956 10154,6947 10155,6929 10154,6900 10136,6923 10112,6934 10084,6934 10048,6934 10021,6921 10002,6896 9982,6870 9973,6840 9973,6804 9973,6780 9977,6757 9986,6737 9995,6716 10008,6700 10024,6689 10041,6678 10061,6672 10084,6672 10114,6672 10139,6684 10158,6709 L 10158,6678 10198,6678 10198,6899 C 10198,6939 10194,6967 10186,6984 10178,7000 10165,7013 10148,7023 10130,7033 10109,7038 10083,7038 10052,7038 10028,7031 10009,7017 9990,7003 9981,6983 9981,6955 L 9981,6955 Z M 10017,6801 C 10017,6835 10024,6859 10037,6875 10051,6890 10068,6898 10088,6898 10108,6898 10124,6890 10138,6875 10151,6860 10158,6836 10158,6803 10158,6771 10151,6748 10137,6732 10123,6716 10106,6708 10087,6708 10068,6708 10051,6716 10038,6732 10024,6747 10017,6770 10017,6801 L 10017,6801 Z M 10440,6852 L 10484,6857 C 10477,6883 10464,6904 10445,6918 10426,6932 10401,6940 10372,6940 10334,6940 10304,6928 10282,6905 10261,6882 10250,6850 10250,6808 10250,6765 10261,6731 10283,6708 10305,6684 10334,6672 10369,6672 10403,6672 10431,6684 10453,6707 10475,6731 10485,6763 10485,6805 10485,6808 10485,6812 10485,6817 L 10294,6817 C 10296,6845 10304,6867 10318,6882 10333,6897 10351,6904 10372,6904 10388,6904 10401,6900 10413,6892 10424,6883 10433,6870 10440,6852 L 10440,6852 Z M 10297,6781 L 10440,6781 C 10438,6760 10432,6744 10423,6733 10410,6716 10392,6708 10370,6708 10350,6708 10333,6715 10319,6728 10306,6741 10298,6759 10297,6781 L 10297,6781 Z M 10633,6895 L 10640,6933 C 10627,6936 10617,6937 10607,6937 10591,6937 10579,6935 10570,6930 10562,6925 10556,6918 10552,6910 10548,6902 10547,6885 10547,6859 L 10547,6712 10515,6712 10515,6678 10547,6678 10547,6615 10590,6589 10590,6678 10633,6678 10633,6712 10590,6712 10590,6862 C 10590,6874 10590,6881 10592,6885 10593,6889 10596,6892 10599,6894 10603,6896 10608,6897 10614,6897 10619,6897 10625,6896 10633,6895 L 10633,6895 Z M 10659,6857 L 10702,6851 C 10704,6868 10710,6881 10721,6890 10732,6900 10748,6904 10768,6904 10788,6904 10802,6900 10812,6892 10822,6884 10826,6874 10826,6863 10826,6854 10822,6846 10814,6840 10808,6836 10793,6831 10769,6826 10737,6817 10715,6810 10703,6804 10691,6799 10681,6791 10675,6781 10669,6770 10666,6758 10666,6746 10666,6735 10668,6724 10673,6714 10679,6704 10686,6696 10695,6690 10702,6685 10711,6681 10722,6678 10734,6674 10747,6672 10760,6672 10780,6672 10798,6675 10813,6681 10828,6687 10839,6695 10846,6704 10854,6714 10859,6728 10862,6744 L 10819,6750 C 10817,6737 10811,6726 10802,6719 10793,6712 10780,6708 10763,6708 10743,6708 10729,6711 10720,6718 10712,6724 10708,6732 10708,6741 10708,6746 10709,6751 10713,6756 10716,6761 10722,6765 10730,6768 10734,6769 10746,6773 10768,6779 10799,6787 10820,6793 10832,6799 10844,6804 10854,6812 10861,6821 10868,6831 10871,6844 10871,6859 10871,6873 10867,6887 10858,6900 10850,6912 10838,6922 10822,6929 10806,6936 10788,6940 10768,6940 10735,6940 10709,6933 10692,6919 10674,6905 10663,6885 10659,6857 L 10659,6857 Z "/>
         <path fill="rgb(0,0,0)" stroke="none" d="M 11111,6832 C 11113,6849 11119,6862 11128,6871 11137,6879 11149,6884 11162,6884 11175,6884 11187,6879 11197,6868 11206,6857 11211,6843 11211,6825 11211,6808 11206,6795 11197,6785 11188,6774 11177,6769 11164,6769 11155,6769 11145,6771 11133,6775 L 11140,6719 C 11158,6720 11173,6716 11182,6708 11192,6699 11197,6688 11197,6674 11197,6662 11193,6653 11186,6645 11179,6638 11170,6635 11158,6635 11146,6635 11136,6639 11128,6647 11120,6655 11115,6667 11113,6682 L 11051,6671 C 11055,6650 11062,6633 11070,6621 11079,6608 11091,6598 11107,6590 11123,6583 11140,6579 11160,6579 11193,6579 11220,6590 11240,6611 11256,6628 11264,6648 11264,6670 11264,6701 11247,6726 11214,6744 11234,6748 11250,6758 11262,6773 11275,6788 11281,6806 11281,6828 11281,6859 11269,6885 11246,6907 11224,6929 11196,6940 11162,6940 11130,6940 11103,6931 11082,6912 11061,6894 11049,6870 11046,6840 L 11111,6832 Z M 11437,6579 C 11471,6579 11498,6591 11517,6616 11540,6645 11552,6692 11552,6759 11552,6826 11540,6874 11517,6904 11498,6928 11471,6940 11437,6940 11403,6940 11375,6927 11354,6900 11333,6874 11322,6827 11322,6759 11322,6692 11334,6644 11357,6615 11376,6591 11403,6579 11437,6579 Z M 11437,6635 C 11429,6635 11422,6638 11415,6643 11409,6649 11404,6658 11400,6671 11396,6689 11393,6718 11393,6759 11393,6801 11396,6830 11400,6845 11404,6860 11409,6871 11415,6876 11422,6881 11429,6884 11437,6884 11445,6884 11452,6881 11459,6876 11465,6871 11470,6861 11474,6848 11479,6831 11481,6801 11481,6759 11481,6718 11479,6690 11474,6674 11470,6659 11465,6649 11459,6643 11452,6638 11445,6635 11437,6635 Z M 11749,6581 L 12011,6581 12011,6640 11820,6640 11820,6719 11998,6719 11998,6778 11820,6778 11820,6874 12018,6874 12018,6934 11749,6934 11749,6581 Z M 12301,6754 L 12234,6766 C 12232,6752 12227,6742 12219,6736 12211,6729 12201,6726 12188,6726 12171,6726 12158,6731 12148,6743 12138,6754 12133,6774 12133,6801 12133,6832 12138,6853 12148,6866 12158,6878 12172,6884 12189,6884 12202,6884 12212,6881 12221,6873 12229,6866 12235,6854 12238,6836 L 12305,6847 C 12298,6878 12284,6901 12265,6916 12245,6932 12219,6940 12186,6940 12148,6940 12119,6928 12096,6904 12074,6881 12063,6848 12063,6806 12063,6764 12074,6731 12097,6708 12119,6684 12149,6672 12187,6672 12218,6672 12243,6679 12261,6692 12280,6706 12293,6726 12301,6754 Z M 12337,6802 C 12337,6780 12342,6758 12353,6737 12364,6716 12380,6700 12401,6689 12421,6678 12444,6672 12469,6672 12507,6672 12539,6685 12564,6710 12589,6735 12601,6767 12601,6805 12601,6844 12589,6876 12563,6902 12538,6927 12507,6940 12469,6940 12446,6940 12423,6934 12402,6924 12381,6913 12364,6898 12353,6877 12342,6857 12337,6832 12337,6802 Z M 12406,6806 C 12406,6831 12412,6851 12424,6864 12436,6878 12451,6884 12469,6884 12486,6884 12501,6878 12513,6864 12525,6851 12531,6831 12531,6805 12531,6780 12525,6761 12513,6747 12501,6734 12486,6727 12469,6727 12451,6727 12436,6734 12424,6747 12412,6761 12406,6780 12406,6806 Z M 12654,6643 L 12654,6581 12722,6581 12722,6643 12654,6643 Z M 12654,6934 L 12654,6678 12722,6678 12722,6934 12654,6934 Z M 13024,6934 L 12956,6934 12956,6803 C 12956,6776 12955,6758 12952,6750 12949,6742 12944,6735 12938,6731 12931,6726 12924,6724 12914,6724 12903,6724 12892,6727 12883,6734 12873,6740 12867,6749 12863,6759 12860,6770 12858,6789 12858,6818 L 12858,6934 12791,6934 12791,6678 12854,6678 12854,6716 C 12876,6687 12904,6672 12938,6672 12953,6672 12967,6675 12979,6681 12991,6686 13001,6693 13007,6701 13013,6709 13018,6719 13020,6730 13023,6740 13024,6755 13024,6775 L 13024,6934 13024,6934 Z M 13069,6861 L 13137,6850 C 13140,6864 13146,6874 13154,6881 13163,6887 13176,6891 13192,6891 13209,6891 13222,6888 13231,6881 13237,6877 13240,6871 13240,6863 13240,6858 13238,6854 13235,6850 13232,6847 13224,6844 13212,6841 13158,6829 13123,6818 13108,6808 13088,6794 13078,6775 13078,6751 13078,6728 13087,6710 13104,6695 13122,6680 13149,6672 13186,6672 13221,6672 13247,6678 13264,6690 13281,6701 13293,6718 13299,6740 L 13235,6752 C 13233,6742 13227,6734 13220,6729 13212,6724 13201,6721 13187,6721 13169,6721 13157,6723 13149,6728 13144,6732 13141,6737 13141,6742 13141,6747 13143,6751 13148,6754 13154,6759 13175,6765 13211,6773 13247,6781 13272,6792 13287,6804 13301,6816 13308,6832 13308,6854 13308,6877 13298,6898 13278,6914 13259,6931 13230,6940 13192,6940 13157,6940 13129,6933 13108,6919 13088,6904 13075,6885 13069,6861 Z "/>
         <path fill="rgb(0,0,0)" stroke="none" d="M 13778,2276 L 13710,2276 13710,2021 C 13685,2044 13656,2061 13622,2072 L 13622,2011 C 13640,2005 13660,1994 13680,1978 13701,1962 13715,1943 13723,1921 L 13778,1921 13778,2276 13778,2276 Z M 13870,2203 L 13937,2192 C 13940,2206 13946,2216 13955,2223 13964,2229 13976,2233 13992,2233 14010,2233 14023,2230 14032,2223 14038,2219 14041,2213 14041,2205 14041,2200 14039,2196 14036,2192 14032,2189 14025,2186 14013,2183 13958,2171 13924,2160 13909,2150 13889,2136 13879,2117 13879,2093 13879,2070 13888,2052 13905,2037 13923,2022 13950,2014 13987,2014 14022,2014 14048,2020 14065,2032 14082,2043 14093,2060 14100,2082 L 14036,2094 C 14033,2084 14028,2076 14020,2071 14013,2066 14002,2063 13988,2063 13970,2063 13957,2066 13950,2070 13945,2074 13942,2079 13942,2084 13942,2089 13944,2093 13949,2097 13955,2101 13976,2107 14012,2116 14048,2123 14073,2134 14087,2146 14101,2158 14109,2174 14109,2196 14109,2219 14099,2240 14079,2256 14060,2273 14031,2282 13992,2282 13957,2282 13930,2275 13909,2261 13889,2246 13876,2227 13870,2203 L 13870,2203 Z M 14285,2020 L 14285,2074 14239,2074 14239,2177 C 14239,2198 14240,2210 14240,2214 14241,2217 14243,2220 14246,2222 14249,2224 14253,2225 14258,2225 14264,2225 14273,2223 14285,2219 L 14291,2272 C 14275,2278 14257,2282 14238,2282 14225,2282 14214,2280 14204,2275 14194,2271 14187,2266 14183,2260 14178,2253 14175,2244 14173,2233 14172,2225 14171,2209 14171,2185 L 14171,2074 14140,2074 14140,2020 14171,2020 14171,1969 14239,1930 14239,2020 14285,2020 14285,2020 Z M 14464,2020 L 14527,2020 14527,2055 C 14549,2028 14576,2014 14606,2014 14623,2014 14637,2018 14649,2025 14661,2031 14671,2041 14679,2055 14690,2041 14702,2031 14715,2025 14728,2018 14742,2014 14757,2014 14776,2014 14791,2018 14804,2026 14818,2033 14827,2044 14834,2059 14838,2070 14841,2088 14841,2112 L 14841,2276 14773,2276 14773,2130 C 14773,2104 14771,2088 14766,2080 14760,2071 14750,2066 14737,2066 14728,2066 14719,2069 14710,2075 14702,2080 14696,2089 14692,2100 14689,2111 14687,2129 14687,2153 L 14687,2276 14619,2276 14619,2136 C 14619,2111 14618,2095 14615,2087 14613,2080 14609,2075 14604,2071 14599,2068 14592,2066 14584,2066 14573,2066 14564,2069 14556,2075 14547,2080 14541,2088 14537,2099 14534,2109 14532,2127 14532,2151 L 14532,2276 14464,2276 14464,2020 14464,2020 Z M 14893,2144 C 14893,2122 14898,2100 14909,2079 14920,2058 14936,2042 14956,2031 14977,2020 15000,2014 15025,2014 15063,2014 15095,2027 15120,2052 15144,2077 15157,2109 15157,2147 15157,2186 15144,2218 15119,2244 15094,2269 15063,2282 15025,2282 15002,2282 14979,2276 14958,2266 14936,2255 14920,2240 14909,2219 14898,2199 14893,2174 14893,2144 L 14893,2144 Z M 14962,2148 C 14962,2173 14968,2193 14980,2206 14992,2220 15007,2226 15025,2226 15042,2226 15057,2220 15069,2206 15081,2193 15087,2173 15087,2147 15087,2122 15081,2103 15069,2089 15057,2076 15042,2069 15025,2069 15007,2069 14992,2076 14980,2089 14968,2103 14962,2122 14962,2148 L 14962,2148 Z M 15280,2276 L 15177,2020 15248,2020 15296,2151 15310,2194 C 15314,2183 15316,2176 15317,2172 15320,2165 15322,2158 15324,2151 L 15373,2020 15443,2020 15341,2276 15280,2276 15280,2276 Z M 15632,2194 L 15700,2206 C 15691,2230 15678,2249 15659,2262 15640,2275 15617,2282 15589,2282 15544,2282 15511,2267 15490,2238 15473,2215 15465,2185 15465,2150 15465,2107 15476,2074 15498,2050 15520,2026 15548,2014 15582,2014 15620,2014 15650,2027 15672,2052 15694,2077 15705,2116 15704,2168 L 15534,2168 C 15535,2188 15540,2203 15550,2215 15561,2226 15574,2231 15589,2231 15600,2231 15609,2228 15616,2223 15623,2217 15629,2207 15632,2194 L 15632,2194 Z M 15637,2126 C 15636,2106 15631,2091 15621,2081 15612,2071 15600,2066 15586,2066 15571,2066 15559,2071 15549,2082 15540,2093 15535,2107 15535,2126 L 15637,2126 15637,2126 Z M 15824,2276 L 15756,2276 15756,2020 15819,2020 15819,2056 C 15830,2039 15839,2028 15848,2023 15856,2017 15866,2014 15877,2014 15893,2014 15907,2019 15922,2027 L 15901,2086 C 15889,2079 15879,2075 15869,2075 15860,2075 15852,2078 15845,2083 15838,2088 15833,2098 15829,2111 15826,2125 15824,2153 15824,2197 L 15824,2276 15824,2276 Z "/>
         <path fill="rgb(0,0,0)" stroke="none" d="M 16077,2297 L 16119,2303 C 16121,2316 16126,2326 16134,2332 16145,2340 16160,2344 16178,2344 16198,2344 16214,2340 16225,2332 16236,2324 16243,2312 16247,2298 16249,2289 16250,2271 16250,2242 16231,2265 16208,2276 16179,2276 16144,2276 16117,2263 16097,2238 16078,2212 16068,2182 16068,2147 16068,2122 16073,2099 16082,2079 16091,2058 16103,2042 16120,2031 16137,2020 16157,2014 16180,2014 16210,2014 16234,2026 16254,2051 L 16254,2020 16294,2020 16294,2241 C 16294,2281 16290,2309 16282,2326 16274,2342 16261,2355 16243,2365 16226,2375 16204,2380 16178,2380 16148,2380 16123,2373 16104,2359 16086,2345 16076,2325 16077,2297 L 16077,2297 Z M 16113,2143 C 16113,2177 16120,2201 16133,2217 16146,2232 16163,2240 16183,2240 16203,2240 16220,2232 16233,2217 16247,2202 16254,2178 16254,2145 16254,2113 16247,2090 16232,2074 16219,2058 16202,2050 16182,2050 16163,2050 16147,2058 16133,2074 16120,2089 16113,2112 16113,2143 L 16113,2143 Z M 16535,2194 L 16580,2199 C 16573,2225 16559,2246 16540,2260 16521,2274 16497,2282 16467,2282 16430,2282 16400,2270 16378,2247 16356,2224 16345,2192 16345,2150 16345,2107 16356,2073 16378,2050 16401,2026 16430,2014 16465,2014 16499,2014 16527,2026 16548,2049 16570,2073 16581,2105 16581,2147 16581,2150 16581,2154 16581,2159 L 16390,2159 C 16392,2187 16400,2209 16414,2224 16428,2239 16446,2246 16467,2246 16483,2246 16497,2242 16508,2234 16519,2225 16528,2212 16535,2194 L 16535,2194 Z M 16392,2123 L 16535,2123 C 16534,2102 16528,2086 16519,2075 16505,2058 16487,2050 16465,2050 16445,2050 16429,2057 16415,2070 16401,2083 16394,2101 16392,2123 L 16392,2123 Z M 16729,2237 L 16735,2275 C 16723,2278 16712,2279 16703,2279 16687,2279 16675,2277 16666,2272 16657,2267 16651,2260 16648,2252 16644,2244 16642,2227 16642,2201 L 16642,2054 16610,2054 16610,2020 16642,2020 16642,1957 16685,1931 16685,2020 16729,2020 16729,2054 16685,2054 16685,2204 C 16685,2216 16686,2224 16687,2227 16689,2231 16691,2234 16695,2236 16698,2238 16703,2239 16710,2239 16715,2239 16721,2238 16729,2237 L 16729,2237 Z M 16754,2199 L 16797,2193 C 16799,2210 16806,2223 16817,2232 16828,2242 16843,2246 16863,2246 16883,2246 16898,2242 16907,2234 16917,2226 16922,2216 16922,2205 16922,2196 16918,2188 16909,2182 16903,2178 16889,2173 16865,2168 16833,2159 16811,2152 16798,2147 16786,2141 16777,2133 16771,2123 16764,2112 16761,2100 16761,2088 16761,2077 16764,2066 16769,2056 16774,2046 16781,2038 16790,2032 16797,2027 16806,2023 16818,2020 16830,2016 16842,2014 16855,2014 16875,2014 16893,2017 16908,2023 16923,2029 16935,2037 16942,2046 16949,2056 16954,2070 16957,2086 L 16914,2092 C 16913,2079 16907,2068 16898,2061 16888,2054 16875,2050 16859,2050 16839,2050 16824,2053 16816,2060 16807,2066 16803,2074 16803,2083 16803,2088 16805,2093 16808,2098 16812,2103 16817,2107 16825,2110 16829,2111 16842,2115 16863,2121 16894,2129 16916,2135 16928,2141 16940,2146 16949,2154 16956,2163 16963,2173 16967,2186 16967,2201 16967,2215 16962,2229 16954,2242 16945,2254 16933,2264 16917,2271 16901,2278 16883,2282 16863,2282 16830,2282 16805,2275 16787,2261 16770,2247 16759,2227 16754,2199 L 16754,2199 Z "/>
         <path fill="rgb(0,0,0)" stroke="none" d="M 17144,1990 L 17144,1927 17375,1927 17375,1977 C 17356,1995 17337,2022 17317,2058 17297,2093 17282,2130 17272,2170 17261,2209 17256,2245 17257,2276 L 17191,2276 C 17192,2227 17202,2177 17222,2127 17241,2076 17266,2030 17298,1990 L 17144,1990 17144,1990 Z M 17533,1921 C 17567,1921 17594,1933 17613,1958 17636,1987 17647,2035 17647,2101 17647,2168 17636,2216 17613,2246 17594,2270 17567,2282 17533,2282 17498,2282 17471,2269 17449,2242 17428,2216 17418,2169 17418,2101 17418,2034 17429,1986 17453,1957 17472,1933 17498,1921 17533,1921 L 17533,1921 Z M 17533,1977 C 17525,1977 17517,1980 17510,1985 17504,1991 17499,2000 17496,2013 17491,2031 17489,2060 17489,2101 17489,2143 17491,2172 17495,2187 17499,2202 17505,2213 17511,2218 17517,2223 17525,2226 17533,2226 17541,2226 17548,2223 17554,2218 17561,2213 17566,2203 17570,2190 17574,2173 17577,2143 17577,2101 17577,2060 17574,2032 17570,2016 17566,2001 17561,1991 17554,1985 17548,1980 17541,1977 17533,1977 L 17533,1977 Z M 17845,2276 L 17845,1923 18107,1923 18107,1982 17916,1982 17916,2061 18094,2061 18094,2120 17916,2120 17916,2216 18114,2216 18114,2276 17845,2276 17845,2276 Z M 18397,2096 L 18330,2108 C 18328,2094 18323,2085 18315,2078 18307,2071 18296,2068 18284,2068 18267,2068 18253,2073 18243,2085 18233,2097 18228,2116 18228,2143 18228,2174 18233,2195 18243,2208 18254,2220 18267,2226 18284,2226 18297,2226 18308,2223 18316,2216 18325,2208 18330,2196 18334,2178 L 18400,2189 C 18393,2220 18380,2243 18360,2258 18340,2274 18314,2282 18282,2282 18244,2282 18214,2270 18192,2247 18170,2223 18159,2190 18159,2148 18159,2106 18170,2073 18192,2050 18215,2026 18245,2014 18283,2014 18314,2014 18339,2021 18357,2035 18375,2048 18389,2068 18397,2096 L 18397,2096 Z M 18432,2144 C 18432,2122 18438,2100 18449,2079 18460,2058 18476,2042 18496,2031 18516,2020 18539,2014 18564,2014 18603,2014 18635,2027 18659,2052 18684,2077 18697,2109 18697,2147 18697,2186 18684,2218 18659,2244 18634,2269 18602,2282 18565,2282 18541,2282 18519,2276 18497,2266 18476,2255 18460,2240 18449,2219 18438,2199 18432,2174 18432,2144 L 18432,2144 Z M 18502,2148 C 18502,2173 18508,2193 18520,2206 18532,2220 18547,2226 18564,2226 18582,2226 18597,2220 18609,2206 18621,2193 18627,2173 18627,2147 18627,2122 18621,2103 18609,2089 18597,2076 18582,2069 18564,2069 18547,2069 18532,2076 18520,2089 18508,2103 18502,2122 18502,2148 L 18502,2148 Z M 18750,1985 L 18750,1923 18817,1923 18817,1985 18750,1985 18750,1985 Z M 18750,2276 L 18750,2020 18817,2020 18817,2276 18750,2276 18750,2276 Z M 19120,2276 L 19052,2276 19052,2145 C 19052,2118 19050,2100 19047,2092 19044,2084 19040,2077 19033,2073 19027,2068 19019,2066 19010,2066 18998,2066 18988,2069 18978,2076 18969,2082 18962,2091 18959,2101 18955,2112 18954,2131 18954,2160 L 18954,2276 18886,2276 18886,2020 18949,2020 18949,2058 C 18972,2029 19000,2014 19034,2014 19048,2014 19062,2017 19074,2023 19087,2028 19096,2035 19103,2043 19109,2051 19113,2061 19116,2072 19118,2082 19120,2097 19120,2117 L 19120,2276 19120,2276 Z M 19164,2203 L 19232,2192 C 19235,2206 19241,2216 19250,2223 19259,2229 19271,2233 19287,2233 19304,2233 19318,2230 19326,2223 19332,2219 19335,2213 19335,2205 19335,2200 19334,2196 19330,2192 19327,2189 19320,2186 19308,2183 19253,2171 19219,2160 19204,2150 19184,2136 19174,2117 19174,2093 19174,2070 19182,2052 19200,2037 19217,2022 19245,2014 19281,2014 19316,2014 19342,2020 19359,2032 19377,2043 19388,2060 19395,2082 L 19331,2094 C 19328,2084 19323,2076 19315,2071 19308,2066 19297,2063 19283,2063 19265,2063 19252,2066 19244,2070 19239,2074 19237,2079 19237,2084 19237,2089 19239,2093 19243,2097 19249,2101 19270,2107 19307,2116 19343,2123 19368,2134 19382,2146 19396,2158 19403,2174 19403,2196 19403,2219 19393,2240 19374,2256 19354,2273 19325,2282 19287,2282 19252,2282 19224,2275 19204,2261 19184,2246 19171,2227 19164,2203 L 19164,2203 Z "/>
         <path fill="rgb(0,0,0)" stroke="none" d="M 13833,2805 L 13833,2868 13596,2868 C 13598,2845 13606,2822 13619,2801 13632,2779 13657,2751 13695,2716 13726,2688 13744,2668 13751,2658 13761,2644 13765,2630 13765,2617 13765,2602 13761,2590 13753,2582 13745,2574 13734,2570 13719,2570 13705,2570 13694,2574 13686,2583 13677,2591 13672,2605 13671,2625 L 13604,2618 C 13608,2581 13620,2554 13641,2538 13663,2522 13689,2514 13721,2514 13756,2514 13783,2523 13803,2542 13823,2561 13833,2584 13833,2612 13833,2628 13830,2643 13824,2658 13819,2672 13810,2687 13798,2703 13789,2713 13774,2728 13753,2748 13732,2767 13718,2780 13712,2787 13707,2793 13702,2799 13699,2805 L 13833,2805 13833,2805 Z M 14126,2868 L 14058,2868 14058,2738 C 14058,2710 14057,2692 14054,2684 14051,2676 14046,2670 14040,2665 14034,2661 14026,2658 14017,2658 14005,2658 13994,2662 13985,2668 13976,2675 13969,2683 13965,2694 13962,2704 13961,2724 13961,2753 L 13961,2868 13893,2868 13893,2612 13956,2612 13956,2650 C 13978,2621 14006,2607 14040,2607 14055,2607 14069,2609 14081,2615 14094,2620 14103,2627 14109,2636 14116,2644 14120,2653 14123,2664 14125,2675 14126,2690 14126,2709 L 14126,2868 14126,2868 Z M 14430,2868 L 14367,2868 14367,2831 C 14356,2845 14344,2856 14329,2863 14315,2870 14301,2874 14287,2874 14257,2874 14232,2862 14211,2839 14190,2815 14180,2782 14180,2739 14180,2696 14190,2663 14210,2641 14231,2618 14257,2607 14288,2607 14316,2607 14341,2619 14362,2642 L 14362,2515 14430,2515 14430,2868 14430,2868 Z M 14249,2735 C 14249,2762 14253,2782 14260,2794 14271,2812 14286,2821 14306,2821 14322,2821 14335,2814 14346,2801 14357,2787 14362,2768 14362,2741 14362,2712 14357,2691 14346,2678 14335,2665 14322,2658 14305,2658 14289,2658 14276,2665 14265,2678 14254,2690 14249,2709 14249,2735 L 14249,2735 Z M 14628,2612 L 14691,2612 14691,2647 C 14713,2620 14740,2607 14771,2607 14787,2607 14801,2610 14813,2617 14825,2624 14835,2634 14843,2647 14854,2634 14866,2624 14879,2617 14892,2610 14906,2607 14921,2607 14940,2607 14956,2611 14969,2618 14982,2626 14992,2637 14998,2652 15003,2663 15005,2680 15005,2705 L 15005,2868 14937,2868 14937,2722 C 14937,2697 14935,2680 14930,2673 14924,2663 14914,2658 14901,2658 14892,2658 14883,2661 14874,2667 14866,2673 14860,2681 14856,2693 14853,2704 14851,2721 14851,2746 L 14851,2868 14783,2868 14783,2728 C 14783,2703 14782,2687 14780,2680 14777,2673 14773,2667 14768,2664 14763,2660 14757,2658 14748,2658 14737,2658 14728,2661 14720,2667 14711,2673 14705,2681 14701,2691 14698,2702 14696,2719 14696,2744 L 14696,2868 14628,2868 14628,2612 14628,2612 Z M 15057,2737 C 15057,2714 15062,2693 15073,2672 15084,2650 15100,2634 15121,2623 15141,2612 15164,2607 15189,2607 15227,2607 15259,2619 15284,2644 15309,2669 15321,2701 15321,2740 15321,2778 15308,2810 15283,2836 15258,2861 15227,2874 15189,2874 15166,2874 15143,2869 15122,2858 15101,2848 15084,2832 15073,2812 15062,2791 15057,2766 15057,2737 L 15057,2737 Z M 15126,2740 C 15126,2766 15132,2785 15144,2799 15156,2812 15171,2819 15189,2819 15206,2819 15221,2812 15233,2799 15245,2785 15251,2766 15251,2740 15251,2715 15245,2695 15233,2682 15221,2668 15206,2662 15189,2662 15171,2662 15156,2668 15144,2682 15132,2695 15126,2715 15126,2740 L 15126,2740 Z M 15444,2868 L 15341,2612 15412,2612 15460,2743 15475,2786 C 15478,2775 15480,2768 15482,2765 15484,2757 15486,2750 15489,2743 L 15537,2612 15607,2612 15505,2868 15444,2868 15444,2868 Z M 15797,2787 L 15864,2798 C 15855,2823 15842,2842 15823,2855 15804,2868 15781,2874 15753,2874 15708,2874 15675,2859 15654,2830 15637,2807 15629,2778 15629,2742 15629,2700 15640,2667 15662,2643 15684,2619 15712,2607 15746,2607 15784,2607 15814,2619 15836,2644 15858,2669 15869,2708 15868,2760 L 15698,2760 C 15699,2780 15704,2796 15714,2807 15725,2818 15738,2824 15754,2824 15764,2824 15773,2821 15780,2815 15787,2809 15793,2800 15797,2787 L 15797,2787 Z M 15801,2718 C 15800,2699 15795,2684 15785,2674 15776,2663 15764,2658 15750,2658 15735,2658 15723,2664 15713,2674 15704,2685 15699,2700 15699,2718 L 15801,2718 15801,2718 Z M 15988,2868 L 15920,2868 15920,2612 15983,2612 15983,2649 C 15994,2631 16003,2620 16012,2615 16021,2609 16030,2607 16041,2607 16057,2607 16072,2611 16086,2619 L 16065,2679 C 16054,2671 16043,2667 16033,2667 16024,2667 16016,2670 16009,2675 16002,2681 15997,2690 15993,2704 15990,2717 15988,2746 15988,2789 L 15988,2868 15988,2868 Z "/>
         <path fill="rgb(0,0,0)" stroke="none" d="M 16241,2889 L 16283,2896 C 16285,2909 16290,2918 16298,2924 16309,2932 16324,2936 16342,2936 16363,2936 16378,2932 16389,2924 16400,2916 16407,2905 16411,2891 16413,2882 16414,2863 16414,2835 16395,2857 16372,2868 16343,2868 16308,2868 16281,2856 16261,2830 16242,2805 16232,2774 16232,2739 16232,2714 16237,2692 16246,2671 16255,2650 16268,2635 16284,2624 16301,2612 16321,2607 16344,2607 16374,2607 16399,2619 16418,2643 L 16418,2612 16458,2612 16458,2834 C 16458,2874 16454,2902 16446,2918 16438,2935 16425,2948 16407,2958 16390,2967 16368,2972 16342,2972 16312,2972 16287,2965 16268,2951 16250,2938 16241,2917 16241,2889 L 16241,2889 Z M 16277,2736 C 16277,2769 16284,2794 16297,2809 16310,2825 16327,2832 16347,2832 16367,2832 16384,2825 16397,2810 16411,2794 16418,2770 16418,2737 16418,2706 16411,2682 16397,2667 16383,2651 16366,2643 16347,2643 16327,2643 16311,2650 16297,2666 16284,2682 16277,2705 16277,2736 L 16277,2736 Z M 16699,2786 L 16744,2791 C 16737,2818 16724,2838 16705,2853 16686,2867 16661,2874 16631,2874 16594,2874 16564,2863 16542,2840 16520,2817 16509,2784 16509,2743 16509,2699 16520,2666 16543,2642 16565,2619 16594,2607 16629,2607 16663,2607 16691,2618 16712,2642 16734,2665 16745,2698 16745,2740 16745,2743 16745,2746 16745,2751 L 16554,2751 C 16556,2779 16564,2801 16578,2816 16592,2831 16610,2839 16631,2839 16647,2839 16661,2834 16672,2826 16684,2818 16693,2804 16699,2786 L 16699,2786 Z M 16557,2716 L 16700,2716 C 16698,2694 16692,2678 16683,2667 16669,2651 16651,2642 16629,2642 16609,2642 16593,2649 16579,2662 16565,2676 16558,2693 16557,2716 L 16557,2716 Z M 16893,2829 L 16899,2868 C 16887,2870 16876,2872 16867,2872 16851,2872 16839,2869 16830,2864 16821,2859 16815,2853 16812,2845 16808,2836 16806,2819 16806,2793 L 16806,2646 16774,2646 16774,2612 16806,2612 16806,2549 16849,2523 16849,2612 16893,2612 16893,2646 16849,2646 16849,2796 C 16849,2808 16850,2816 16851,2820 16853,2823 16855,2826 16859,2828 16862,2830 16867,2831 16874,2831 16879,2831 16885,2831 16893,2829 L 16893,2829 Z M 16918,2792 L 16961,2785 C 16963,2802 16970,2816 16981,2825 16992,2834 17007,2839 17027,2839 17047,2839 17062,2835 17072,2827 17081,2818 17086,2809 17086,2798 17086,2788 17082,2780 17073,2774 17067,2771 17053,2766 17029,2760 16997,2752 16975,2745 16962,2739 16950,2733 16941,2725 16935,2715 16928,2704 16925,2693 16925,2680 16925,2669 16928,2658 16933,2649 16938,2639 16945,2631 16955,2624 16961,2620 16970,2615 16982,2612 16994,2608 17006,2607 17019,2607 17040,2607 17057,2610 17072,2615 17088,2621 17099,2629 17106,2639 17113,2649 17118,2662 17121,2679 L 17079,2684 C 17077,2671 17071,2661 17062,2653 17053,2646 17040,2642 17023,2642 17003,2642 16988,2646 16980,2652 16972,2659 16967,2666 16967,2675 16967,2681 16969,2686 16972,2691 16976,2695 16982,2699 16989,2702 16993,2704 17006,2708 17027,2713 17058,2721 17080,2728 17092,2733 17104,2738 17113,2746 17120,2756 17127,2766 17131,2778 17131,2793 17131,2808 17126,2821 17118,2834 17110,2847 17097,2857 17081,2864 17066,2871 17047,2874 17027,2874 16994,2874 16969,2867 16951,2853 16934,2840 16923,2819 16918,2792 L 16918,2792 Z "/>
         <path fill="rgb(0,0,0)" stroke="none" d="M 17308,2583 L 17308,2520 17539,2520 17539,2569 C 17520,2588 17501,2615 17481,2650 17461,2685 17446,2722 17436,2762 17425,2802 17420,2837 17421,2868 L 17355,2868 C 17357,2820 17367,2770 17386,2719 17405,2668 17430,2623 17462,2583 L 17308,2583 17308,2583 Z M 17697,2514 C 17731,2514 17758,2526 17777,2550 17800,2579 17811,2627 17811,2694 17811,2761 17800,2809 17777,2838 17758,2862 17731,2874 17697,2874 17662,2874 17635,2861 17613,2835 17592,2808 17582,2761 17582,2693 17582,2627 17594,2579 17617,2550 17636,2526 17662,2514 17697,2514 L 17697,2514 Z M 17697,2570 C 17689,2570 17681,2573 17675,2578 17668,2583 17663,2592 17660,2606 17655,2623 17653,2653 17653,2694 17653,2735 17655,2764 17659,2779 17663,2795 17669,2805 17675,2810 17681,2816 17689,2818 17697,2818 17705,2818 17712,2816 17718,2810 17725,2805 17730,2796 17734,2782 17738,2765 17741,2735 17741,2694 17741,2653 17739,2624 17734,2609 17730,2593 17725,2583 17718,2578 17712,2573 17705,2570 17697,2570 L 17697,2570 Z M 18009,2868 L 18009,2515 18271,2515 18271,2575 18080,2575 18080,2653 18258,2653 18258,2712 18080,2712 18080,2809 18278,2809 18278,2868 18009,2868 18009,2868 Z M 18561,2688 L 18494,2700 C 18492,2687 18487,2677 18479,2670 18471,2663 18460,2660 18448,2660 18431,2660 18417,2666 18407,2677 18397,2689 18392,2708 18392,2736 18392,2766 18397,2788 18408,2800 18418,2812 18431,2819 18449,2819 18461,2819 18472,2815 18480,2808 18489,2801 18494,2788 18498,2770 L 18564,2781 C 18557,2812 18544,2835 18524,2851 18505,2866 18478,2874 18446,2874 18408,2874 18378,2862 18356,2839 18334,2815 18323,2782 18323,2741 18323,2698 18334,2666 18356,2642 18379,2619 18409,2607 18447,2607 18478,2607 18503,2613 18521,2627 18539,2640 18553,2661 18561,2688 L 18561,2688 Z M 18597,2737 C 18597,2714 18602,2693 18613,2672 18624,2650 18640,2634 18660,2623 18681,2612 18703,2607 18728,2607 18767,2607 18799,2619 18824,2644 18848,2669 18861,2701 18861,2740 18861,2778 18848,2810 18823,2836 18798,2861 18767,2874 18729,2874 18705,2874 18683,2869 18661,2858 18640,2848 18624,2832 18613,2812 18602,2791 18597,2766 18597,2737 L 18597,2737 Z M 18666,2740 C 18666,2766 18672,2785 18684,2799 18696,2812 18711,2819 18728,2819 18746,2819 18761,2812 18773,2799 18785,2785 18791,2766 18791,2740 18791,2715 18785,2695 18773,2682 18761,2668 18746,2662 18728,2662 18711,2662 18696,2668 18684,2682 18672,2695 18666,2715 18666,2740 L 18666,2740 Z M 18914,2578 L 18914,2515 18982,2515 18982,2578 18914,2578 18914,2578 Z M 18914,2868 L 18914,2612 18982,2612 18982,2868 18914,2868 18914,2868 Z M 19284,2868 L 19216,2868 19216,2738 C 19216,2710 19214,2692 19211,2684 19209,2676 19204,2670 19197,2665 19191,2661 19183,2658 19174,2658 19162,2658 19152,2662 19142,2668 19133,2675 19126,2683 19123,2694 19120,2704 19118,2724 19118,2753 L 19118,2868 19050,2868 19050,2612 19113,2612 19113,2650 C 19136,2621 19164,2607 19198,2607 19213,2607 19226,2609 19239,2615 19251,2620 19260,2627 19267,2636 19273,2644 19277,2653 19280,2664 19282,2675 19284,2690 19284,2709 L 19284,2868 19284,2868 Z M 19328,2795 L 19396,2785 C 19399,2798 19405,2808 19414,2815 19423,2822 19435,2825 19451,2825 19469,2825 19482,2822 19490,2815 19497,2811 19500,2805 19500,2798 19500,2792 19498,2788 19495,2785 19491,2781 19484,2778 19472,2776 19417,2764 19383,2753 19368,2743 19348,2729 19338,2710 19338,2685 19338,2663 19347,2644 19364,2629 19382,2614 19409,2607 19445,2607 19480,2607 19506,2612 19524,2624 19541,2635 19552,2652 19559,2674 L 19495,2686 C 19492,2676 19487,2669 19479,2663 19472,2658 19461,2655 19447,2655 19429,2655 19416,2658 19409,2663 19403,2666 19401,2671 19401,2677 19401,2681 19403,2685 19407,2689 19413,2693 19435,2700 19471,2708 19507,2716 19532,2726 19546,2738 19560,2750 19567,2767 19567,2788 19567,2812 19558,2832 19538,2849 19518,2866 19490,2874 19451,2874 19416,2874 19389,2867 19368,2853 19348,2839 19335,2819 19328,2795 L 19328,2795 Z "/>
         <path fill="none" stroke="rgb(0,0,0)" stroke-width="79" stroke-linejoin="round" d="M 4689,4470 L 6721,6177 "/>
         <path fill="rgb(0,0,0)" stroke="none" d="M 6636,6278 L 6997,6409 6805,6077 6636,6278 Z "/>
         <path fill="none" stroke="rgb(0,0,0)" stroke-width="79" stroke-linejoin="miter" d="M 6636,6278 L 6997,6409 6805,6077 6636,6278 Z "/>
         <path fill="none" stroke="rgb(0,0,0)" stroke-width="79" stroke-linejoin="round" d="M 4689,4470 L 6647,3641 "/>
         <path fill="rgb(0,0,0)" stroke="none" d="M 6698,3761 L 6979,3500 6596,3520 6698,3761 Z "/>
         <path fill="none" stroke="rgb(0,0,0)" stroke-width="79" stroke-linejoin="miter" d="M 6698,3761 L 6979,3500 6596,3520 6698,3761 Z "/>
         <path fill="none" stroke="rgb(0,0,0)" stroke-width="79" stroke-linejoin="round" d="M 10216,3455 L 12906,4585 "/>
         <path fill="rgb(0,0,0)" stroke="none" d="M 12856,4705 L 13238,4724 12957,4464 12856,4705 Z "/>
         <path fill="none" stroke="rgb(0,0,0)" stroke-width="79" stroke-linejoin="miter" d="M 12856,4705 L 13238,4724 12957,4464 12856,4705 Z "/>
         <path fill="none" stroke="rgb(0,0,0)" stroke-width="79" stroke-linejoin="round" d="M 10216,3455 L 12893,2569 "/>
         <path fill="rgb(0,0,0)" stroke="none" d="M 12935,2693 L 13235,2455 12852,2444 12935,2693 Z "/>
         <path fill="none" stroke="rgb(0,0,0)" stroke-width="79" stroke-linejoin="miter" d="M 12935,2693 L 13235,2455 12852,2444 12935,2693 Z "/>
         <path fill="none" stroke="rgb(0,0,0)" stroke-width="26" stroke-linejoin="round" d="M 1376,3914 L 4689,3914 4689,5025 1376,5025 1376,3914 Z "/>
         <path fill="rgb(0,0,0)" stroke="none" d="M 2061,4647 L 1993,4647 1993,4392 C 1968,4416 1939,4433 1906,4444 L 1906,4382 C 1923,4376 1943,4365 1963,4349 1984,4333 1998,4314 2006,4293 L 2061,4293 2061,4647 2061,4647 Z M 2153,4574 L 2221,4564 C 2224,4577 2229,4587 2238,4594 2247,4601 2260,4604 2276,4604 2293,4604 2306,4601 2315,4594 2321,4590 2324,4584 2324,4577 2324,4571 2322,4567 2319,4564 2316,4561 2308,4558 2296,4555 2242,4543 2207,4532 2192,4522 2172,4508 2162,4489 2162,4464 2162,4442 2171,4423 2188,4409 2206,4393 2233,4386 2270,4386 2305,4386 2331,4392 2348,4403 2365,4414 2377,4431 2383,4454 L 2319,4465 C 2317,4455 2311,4448 2304,4442 2296,4437 2285,4435 2271,4435 2253,4435 2241,4437 2233,4442 2228,4446 2225,4450 2225,4456 2225,4460 2227,4464 2232,4468 2238,4472 2259,4479 2295,4487 2331,4495 2356,4505 2371,4517 2385,4529 2392,4546 2392,4567 2392,4591 2382,4611 2362,4628 2343,4645 2314,4653 2276,4653 2241,4653 2213,4646 2192,4632 2172,4618 2159,4598 2153,4574 L 2153,4574 Z M 2569,4392 L 2569,4445 2522,4445 2522,4549 C 2522,4570 2523,4582 2524,4585 2524,4589 2526,4591 2529,4594 2533,4596 2537,4597 2541,4597 2547,4597 2556,4595 2568,4590 L 2574,4643 C 2558,4650 2541,4653 2521,4653 2508,4653 2497,4651 2487,4647 2478,4643 2470,4638 2466,4631 2461,4625 2458,4616 2457,4605 2455,4597 2454,4581 2454,4557 L 2454,4445 2423,4445 2423,4392 2454,4392 2454,4341 2522,4301 2522,4392 2569,4392 2569,4392 Z M 2747,4392 L 2810,4392 2810,4426 C 2832,4399 2859,4386 2890,4386 2906,4386 2920,4389 2932,4396 2944,4403 2954,4413 2962,4426 2973,4413 2985,4403 2998,4396 3012,4389 3025,4386 3040,4386 3059,4386 3075,4390 3088,4397 3101,4405 3111,4416 3117,4431 3122,4442 3124,4459 3124,4484 L 3124,4647 3056,4647 3056,4501 C 3056,4476 3054,4459 3049,4452 3043,4442 3033,4437 3020,4437 3011,4437 3002,4440 2993,4446 2985,4452 2979,4460 2976,4472 2972,4483 2970,4500 2970,4525 L 2970,4647 2902,4647 2902,4507 C 2902,4482 2901,4466 2899,4459 2896,4452 2892,4446 2887,4443 2883,4439 2876,4437 2867,4437 2856,4437 2847,4440 2839,4446 2830,4452 2824,4460 2821,4470 2817,4481 2815,4498 2815,4523 L 2815,4647 2747,4647 2747,4392 2747,4392 Z M 3176,4516 C 3176,4493 3181,4472 3192,4451 3203,4429 3219,4413 3240,4402 3260,4391 3283,4386 3308,4386 3346,4386 3378,4398 3403,4423 3428,4448 3440,4480 3440,4519 3440,4557 3428,4590 3402,4615 3377,4640 3346,4653 3308,4653 3285,4653 3262,4648 3241,4637 3220,4627 3203,4611 3192,4591 3181,4570 3176,4545 3176,4516 L 3176,4516 Z M 3245,4519 C 3245,4545 3251,4564 3263,4578 3275,4591 3290,4598 3308,4598 3325,4598 3340,4591 3352,4578 3364,4564 3370,4545 3370,4519 3370,4494 3364,4474 3352,4461 3340,4447 3325,4441 3308,4441 3290,4441 3275,4447 3263,4461 3251,4474 3245,4494 3245,4519 L 3245,4519 Z M 3563,4647 L 3460,4392 3531,4392 3580,4522 3594,4566 C 3597,4555 3599,4547 3601,4544 3603,4536 3605,4529 3608,4522 L 3656,4392 3726,4392 3624,4647 3563,4647 3563,4647 Z M 3916,4566 L 3983,4577 C 3974,4602 3961,4621 3942,4634 3923,4647 3900,4653 3872,4653 3827,4653 3794,4639 3773,4609 3756,4586 3748,4557 3748,4521 3748,4479 3759,4446 3781,4422 3803,4398 3831,4386 3865,4386 3903,4386 3933,4398 3955,4423 3977,4448 3988,4487 3987,4539 L 3817,4539 C 3818,4559 3823,4575 3833,4586 3844,4597 3857,4603 3873,4603 3883,4603 3892,4600 3899,4594 3907,4588 3912,4579 3916,4566 L 3916,4566 Z M 3920,4497 C 3919,4478 3914,4463 3904,4453 3895,4443 3883,4437 3869,4437 3854,4437 3842,4443 3833,4454 3823,4464 3818,4479 3818,4497 L 3920,4497 3920,4497 Z M 4107,4647 L 4039,4647 4039,4392 4102,4392 4102,4428 C 4113,4411 4122,4399 4131,4394 4140,4389 4149,4386 4160,4386 4176,4386 4191,4390 4205,4399 L 4184,4458 C 4173,4450 4162,4447 4152,4447 4143,4447 4135,4449 4128,4454 4121,4460 4116,4469 4112,4483 4109,4496 4107,4525 4107,4568 L 4107,4647 4107,4647 Z "/>
         <path fill="none" stroke="rgb(0,0,0)" stroke-width="26" stroke-linejoin="round" d="M 7086,2900 L 10216,2900 10216,4011 7086,4011 7086,2900 Z "/>
         <path fill="rgb(0,0,0)" stroke="none" d="M 7652,3570 L 7652,3633 7415,3633 C 7417,3609 7425,3587 7438,3566 7451,3544 7476,3516 7514,3481 7545,3452 7563,3433 7570,3423 7580,3409 7584,3395 7584,3381 7584,3366 7580,3355 7572,3347 7564,3339 7553,3335 7539,3335 7525,3335 7513,3339 7505,3347 7496,3356 7492,3370 7490,3390 L 7423,3383 C 7427,3346 7439,3319 7460,3303 7482,3286 7508,3278 7540,3278 7575,3278 7602,3288 7622,3306 7642,3325 7652,3349 7652,3377 7652,3392 7649,3408 7644,3422 7638,3436 7629,3452 7617,3467 7608,3478 7594,3493 7572,3512 7551,3532 7537,3545 7532,3552 7526,3558 7521,3564 7518,3570 L 7652,3570 Z M 7878,3633 L 7878,3502 C 7878,3475 7876,3457 7873,3449 7870,3441 7866,3434 7859,3430 7853,3425 7845,3423 7836,3423 7824,3423 7813,3426 7804,3433 7795,3439 7788,3448 7785,3459 7781,3469 7780,3489 7780,3517 L 7780,3633 7712,3633 7712,3377 7775,3377 7775,3415 C 7797,3386 7825,3371 7859,3371 7874,3371 7888,3374 7900,3380 7913,3385 7922,3392 7928,3400 7935,3409 7939,3418 7942,3429 7944,3439 7945,3454 7945,3474 L 7945,3633 7878,3633 Z M 8249,3633 L 8186,3633 8186,3595 C 8175,3610 8163,3621 8148,3628 8134,3635 8120,3639 8106,3639 8076,3639 8051,3627 8030,3603 8009,3579 7999,3546 7999,3504 7999,3461 8009,3428 8029,3405 8050,3383 8076,3371 8107,3371 8135,3371 8160,3383 8181,3407 L 8181,3280 8249,3280 8249,3633 8249,3633 Z M 8068,3499 C 8068,3527 8072,3546 8079,3559 8090,3576 8105,3585 8125,3585 8141,3585 8154,3579 8165,3566 8176,3552 8181,3532 8181,3506 8181,3477 8176,3455 8165,3442 8155,3429 8141,3423 8124,3423 8109,3423 8095,3429 8084,3442 8073,3455 8068,3474 8068,3499 Z M 8447,3377 L 8510,3377 8510,3412 C 8532,3385 8559,3371 8590,3371 8606,3371 8620,3375 8632,3382 8644,3388 8654,3398 8662,3412 8673,3398 8685,3388 8698,3382 8712,3375 8725,3371 8740,3371 8759,3371 8775,3375 8788,3383 8801,3390 8811,3402 8817,3416 8822,3427 8824,3445 8824,3469 L 8824,3633 8756,3633 8756,3487 C 8756,3461 8754,3445 8749,3437 8743,3428 8733,3423 8720,3423 8711,3423 8702,3426 8693,3432 8685,3437 8679,3446 8676,3457 8672,3468 8670,3486 8670,3510 L 8670,3633 8602,3633 8602,3493 C 8602,3468 8601,3452 8599,3444 8596,3437 8592,3432 8588,3428 8583,3425 8576,3423 8567,3423 8556,3423 8547,3426 8539,3432 8530,3437 8524,3445 8521,3456 8517,3467 8515,3484 8515,3509 L 8515,3633 8447,3633 8447,3377 8447,3377 Z M 8876,3502 C 8876,3479 8881,3457 8892,3436 8903,3415 8919,3399 8940,3388 8960,3377 8983,3371 9008,3371 9046,3371 9078,3384 9103,3409 9128,3434 9140,3466 9140,3504 9140,3543 9128,3575 9102,3601 9077,3626 9046,3639 9008,3639 8985,3639 8962,3633 8941,3623 8920,3612 8903,3597 8892,3576 8881,3556 8876,3531 8876,3502 Z M 8945,3505 C 8945,3530 8951,3550 8963,3563 8975,3577 8990,3583 9008,3583 9025,3583 9040,3577 9052,3563 9064,3550 9070,3530 9070,3504 9070,3479 9064,3460 9052,3447 9040,3433 9025,3426 9008,3426 8990,3426 8975,3433 8963,3447 8951,3460 8945,3479 8945,3505 Z M 9263,3633 L 9160,3377 9231,3377 9280,3508 9294,3551 C 9297,3540 9300,3533 9301,3529 9303,3522 9305,3515 9308,3508 L 9356,3377 9426,3377 9324,3633 9263,3633 Z M 9616,3552 L 9683,3563 C 9674,3587 9661,3606 9642,3619 9623,3632 9600,3639 9572,3639 9527,3639 9495,3624 9473,3595 9456,3572 9448,3542 9448,3507 9448,3464 9459,3431 9481,3407 9503,3383 9531,3371 9565,3371 9603,3371 9633,3384 9655,3409 9677,3434 9688,3473 9687,3525 L 9517,3525 C 9518,3545 9523,3560 9533,3572 9544,3583 9557,3588 9573,3588 9583,3588 9592,3585 9599,3580 9607,3574 9612,3564 9616,3552 Z M 9620,3483 C 9619,3463 9614,3448 9604,3438 9595,3428 9583,3423 9569,3423 9554,3423 9542,3428 9533,3439 9523,3450 9518,3464 9518,3483 L 9620,3483 Z M 9739,3633 L 9739,3377 9802,3377 9802,3413 C 9813,3396 9822,3385 9831,3380 9840,3374 9849,3371 9860,3371 9876,3371 9891,3376 9905,3384 L 9884,3443 C 9873,3436 9862,3432 9852,3432 9843,3432 9835,3435 9828,3440 9822,3445 9816,3455 9812,3468 9809,3482 9807,3510 9807,3554 L 9807,3633 9739,3633 Z "/>
         <path fill="rgb(0,0,0)" stroke="none" d="M 5778,3633 L 5914,3280 5964,3280 6109,3633 6056,3633 6015,3526 5867,3526 5828,3633 5778,3633 5778,3633 Z M 5880,3488 L 6000,3488 5963,3390 C 5952,3360 5944,3336 5938,3317 5934,3339 5927,3362 5919,3384 L 5880,3488 5880,3488 Z "/>
         <path fill="rgb(0,0,0)" stroke="none" d="M 5758,6167 L 5758,5814 5891,5814 C 5918,5814 5940,5818 5956,5825 5972,5832 5985,5843 5994,5858 6003,5873 6008,5888 6008,5905 6008,5920 6004,5934 5996,5948 5988,5961 5975,5971 5959,5979 5980,5986 5997,5996 6008,6012 6020,6027 6025,6045 6025,6065 6025,6081 6022,6097 6015,6111 6008,6125 5999,6136 5989,6144 5978,6152 5966,6157 5950,6162 5935,6165 5916,6167 5893,6167 L 5758,6167 5758,6167 Z M 5806,5962 L 5882,5962 C 5903,5962 5917,5961 5926,5959 5938,5955 5947,5949 5953,5941 5959,5933 5962,5922 5962,5910 5962,5898 5959,5888 5954,5879 5948,5870 5940,5864 5930,5861 5919,5857 5901,5856 5876,5856 L 5806,5856 5806,5962 5806,5962 Z M 5806,6126 L 5893,6126 C 5908,6126 5919,6125 5925,6124 5936,6122 5945,6119 5952,6114 5959,6110 5965,6103 5970,6095 5975,6086 5977,6076 5977,6065 5977,6052 5974,6040 5967,6031 5960,6021 5951,6014 5939,6010 5927,6006 5910,6004 5887,6004 L 5806,6004 5806,6126 5806,6126 Z "/>
         <path fill="rgb(0,0,0)" stroke="none" d="M 11474,2739 L 11610,2386 11660,2386 11805,2739 11752,2739 11711,2632 11563,2632 11524,2739 11474,2739 11474,2739 Z M 11576,2594 L 11696,2594 11659,2496 C 11648,2466 11640,2442 11634,2423 11630,2445 11623,2468 11615,2490 L 11576,2594 11576,2594 Z "/>
         <path fill="rgb(0,0,0)" stroke="none" d="M 11511,4647 L 11511,4294 11644,4294 C 11671,4294 11692,4298 11709,4305 11725,4312 11738,4323 11747,4338 11756,4353 11761,4368 11761,4385 11761,4400 11757,4414 11748,4428 11740,4441 11728,4451 11712,4459 11733,4466 11749,4476 11761,4492 11772,4507 11778,4524 11778,4545 11778,4561 11775,4577 11767,4591 11761,4605 11752,4616 11741,4624 11731,4632 11718,4637 11703,4642 11687,4645 11668,4647 11646,4647 L 11511,4647 11511,4647 Z M 11558,4442 L 11634,4442 C 11655,4442 11670,4441 11679,4439 11691,4435 11700,4429 11706,4421 11712,4413 11715,4402 11715,4390 11715,4378 11712,4368 11706,4359 11701,4350 11693,4344 11682,4341 11672,4337 11654,4336 11629,4336 L 11558,4336 11558,4442 11558,4442 Z M 11558,4606 L 11646,4606 C 11661,4606 11672,4605 11678,4604 11688,4602 11697,4599 11705,4594 11712,4590 11718,4583 11723,4575 11727,4566 11730,4556 11730,4545 11730,4532 11726,4520 11719,4511 11713,4501 11703,4494 11691,4490 11680,4486 11662,4484 11640,4484 L 11558,4484 11558,4606 11558,4606 Z "/>
        </g>
       </g>
      </g>
     </g>
    </g>
   </g>
  </g>
 </g>
</svg>